<?xml version="1.0" standalone="no"?>
<!DOCTYPE svg PUBLIC "-//W3C//DTD SVG 20010904//EN"
 "http://www.w3.org/TR/2001/REC-SVG-20010904/DTD/svg10.dtd">
<svg version="1.0" xmlns="http://www.w3.org/2000/svg"
 width="600.000000pt" height="419.000000pt" viewBox="0 0 600.000000 419.000000"
 preserveAspectRatio="xMidYMid meet">

<g transform="translate(0.000000,419.000000) scale(0.100000,-0.100000)"
fill="#000000" stroke="none">
<path d="M3320 4000 c-24 -24 -26 -57 -4 -81 13 -14 13 -24 4 -58 -9 -36 -14
-41 -40 -41 -16 0 -32 -4 -35 -10 -4 -6 7 -10 24 -10 36 0 35 3 16 -63 l-15
-52 -146 0 -146 0 6 30 c9 40 42 73 83 81 21 4 31 10 25 16 -15 15 -61 -2 -98
-37 -26 -24 -34 -41 -34 -66 l0 -34 -25 50 c-13 28 -25 57 -25 66 0 24 -56 96
-80 104 -25 8 -50 -10 -50 -37 0 -10 -7 -21 -14 -24 -16 -6 -86 44 -86 62 0 6
-8 18 -18 27 -58 53 -137 -28 -82 -83 22 -22 42 -25 71 -9 15 8 27 6 53 -11
68 -41 68 -42 -61 -118 -65 -39 -135 -88 -155 -109 -48 -49 -78 -121 -85 -203
-3 -36 -16 -87 -28 -115 -34 -74 -55 -164 -55 -238 0 -56 -3 -65 -20 -70 -20
-5 -29 -47 -10 -47 20 0 9 -26 -33 -83 -58 -77 -77 -134 -77 -229 0 -95 23
-160 87 -242 29 -38 39 -56 27 -51 -128 52 -356 105 -454 105 -49 0 -90 15
-90 33 0 29 -38 50 -79 44 -36 -4 -43 -1 -80 37 -39 40 -41 44 -41 107 0 87
-16 109 -77 109 -81 0 -128 -52 -141 -156 l-7 -55 -87 -29 c-48 -16 -106 -41
-127 -55 -51 -31 -91 -90 -91 -132 0 -18 -9 -51 -21 -73 -15 -28 -19 -49 -14
-68 8 -34 53 -82 77 -82 10 0 18 -5 18 -10 0 -6 11 -22 25 -35 48 -49 134 -29
257 59 38 28 60 35 117 41 38 4 81 13 96 21 17 9 58 14 106 14 68 0 81 3 91
20 14 22 69 27 122 10 17 -5 65 -16 106 -26 91 -20 189 -60 265 -108 l55 -36
-25 -50 -25 -50 112 -56 c62 -31 114 -57 115 -58 2 -1 -21 -56 -50 -121 -48
-110 -56 -121 -112 -166 -149 -117 -217 -261 -219 -459 -1 -98 1 -109 31 -172
31 -65 104 -151 167 -195 l30 -21 -43 -94 c-42 -93 -42 -96 -27 -129 8 -19 25
-46 36 -60 l21 -26 -24 -119 c-14 -65 -28 -143 -32 -172 -6 -49 -5 -54 11 -50
14 2 21 16 26 58 5 30 17 100 29 156 l21 101 61 -25 c33 -13 87 -27 119 -30
48 -4 58 -8 54 -21 -16 -52 -56 -216 -56 -228 0 -8 7 -13 17 -11 11 2 21 22
30 63 8 33 23 90 34 127 l19 67 58 16 c99 29 109 38 122 102 23 116 0 103 186
103 90 0 164 -3 164 -6 0 -18 42 -212 50 -231 9 -23 102 -63 145 -63 31 0 40
-18 55 -107 10 -61 15 -73 31 -73 15 0 18 5 15 23 -13 62 -26 129 -26 137 0 4
24 11 53 15 28 4 74 15 100 25 56 22 50 30 87 -112 18 -71 27 -88 42 -88 10 0
18 3 18 6 0 3 -14 56 -32 116 -20 70 -28 115 -22 123 37 47 74 112 74 127 0
10 -29 83 -65 161 l-64 142 39 39 39 39 56 -51 c31 -28 68 -59 83 -68 15 -8
47 -47 70 -85 68 -109 133 -149 257 -157 53 -3 85 -1 89 6 4 6 -30 30 -82 57
-81 43 -182 117 -182 133 0 4 22 13 50 19 139 33 231 185 176 292 -22 41 -81
89 -119 96 -99 19 -206 -66 -232 -182 -3 -18 -10 -33 -14 -33 -9 0 -61 81 -61
97 0 7 29 40 64 74 80 75 110 138 104 216 -4 43 -11 60 -35 86 -50 52 -50 70
-4 123 86 98 150 217 151 282 0 48 -29 90 -101 148 -41 32 -76 59 -78 61 -2 1
11 19 28 40 17 21 31 40 31 44 0 3 -51 45 -112 94 -62 49 -117 92 -121 95 -5
4 20 28 55 52 145 104 223 227 223 353 0 95 -9 132 -51 201 l-36 59 12 61 c6
34 11 110 9 170 -2 93 1 115 19 154 33 69 30 171 -7 265 -16 40 -34 99 -40
132 -14 76 -74 167 -113 171 -22 3 -28 -2 -32 -20 -25 -121 -30 -134 -63 -166
-62 -58 -67 -58 -104 1 -23 35 -57 68 -106 101 -62 42 -70 51 -60 67 8 13 8
21 -2 33 -19 23 -47 20 -65 -6 -13 -18 -16 -19 -16 -6 0 31 20 69 50 95 18 15
30 34 30 49 0 31 -33 64 -65 64 -14 0 -34 -9 -45 -20z m-472 -170 c13 -16 25
-44 29 -62 3 -18 12 -45 19 -60 18 -35 18 -48 -1 -48 -8 0 -21 13 -29 29 -9
16 -26 42 -39 57 -19 23 -23 38 -19 72 2 23 7 42 11 42 4 0 17 -13 29 -30z
m566 -19 c3 -5 -1 -14 -8 -20 -16 -13 -32 2 -21 19 8 12 22 13 29 1z m16 -68
c25 -14 64 -41 87 -60 42 -33 89 -90 81 -98 -2 -2 -42 11 -88 30 -47 19 -109
40 -137 46 -29 7 -53 13 -53 15 0 2 5 26 11 54 12 58 17 59 99 13z m422 -44
c9 -14 22 -54 28 -89 6 -34 23 -88 38 -119 52 -113 28 -262 -51 -312 -46 -29
-136 -22 -207 17 -90 49 -152 144 -136 208 9 37 61 92 125 133 100 63 120 92
146 206 l6 29 17 -24 c10 -12 25 -35 34 -49z m-1052 1 c11 -21 20 -43 20 -48
0 -5 -33 -23 -73 -40 -98 -44 -183 -101 -253 -170 l-57 -57 5 36 c9 52 44 122
81 157 24 22 237 158 254 162 2 0 12 -18 23 -40z m455 -59 c3 -6 1 -28 -4 -50
-9 -42 0 -61 30 -61 17 0 29 27 29 68 0 12 7 25 15 28 19 8 145 -30 208 -62
l48 -25 -31 -26 c-64 -53 -81 -143 -42 -219 27 -52 101 -120 160 -145 65 -29
147 -35 194 -16 l37 16 7 -36 c9 -48 -1 -159 -20 -213 l-15 -44 38 -57 c48
-71 64 -131 59 -211 -8 -121 -85 -234 -220 -325 -54 -35 -85 -49 -127 -54 -37
-5 -69 -18 -99 -39 -45 -32 -149 -60 -274 -75 l-57 -6 -3 33 c-4 42 -29 46
-114 20 -44 -14 -66 -16 -82 -9 -15 7 -30 7 -47 -1 -21 -10 -33 -7 -81 18 -68
37 -87 37 -111 5 l-18 -25 -70 23 c-146 50 -294 141 -359 220 -106 130 -121
272 -44 408 l31 54 13 -54 c6 -30 20 -61 30 -68 31 -23 93 -34 172 -32 58 2
77 -1 80 -12 10 -38 29 -61 63 -76 30 -13 36 -20 27 -30 -18 -22 -2 -89 33
-138 44 -61 156 -135 250 -165 102 -34 254 -34 349 -1 87 30 178 91 245 163
l55 59 49 -7 c65 -8 101 0 95 23 -4 15 -14 17 -57 15 -40 -2 -61 3 -91 20 -59
35 -79 68 -84 141 -3 53 0 67 20 97 13 19 40 46 61 59 39 25 49 51 20 51 -29
0 -82 -43 -114 -92 -26 -41 -41 -51 -122 -86 -120 -52 -212 -79 -317 -92 -86
-10 -246 -13 -222 -3 15 6 42 56 42 78 0 23 -78 101 -118 118 l-32 13 26 14
c24 14 28 13 50 -13 12 -15 26 -27 29 -27 14 0 3 29 -19 49 -14 13 -22 29 -19
37 9 23 -7 16 -49 -22 -22 -19 -41 -34 -42 -32 -2 2 -1 20 2 41 l4 37 62 0 61
0 13 -67 c23 -121 55 -145 203 -151 81 -4 103 -1 142 16 37 16 47 27 55 55 5
19 27 52 49 74 48 48 68 110 66 211 -1 82 -33 163 -79 196 -34 24 -96 32 -134
16 -74 -31 -128 -140 -117 -236 l5 -44 -104 0 c-63 0 -104 -4 -104 -10 0 -5
-25 -10 -55 -10 -30 0 -55 5 -55 10 0 6 -6 10 -13 10 -11 0 -12 11 -5 54 37
211 -143 328 -257 167 -28 -40 -30 -49 -30 -132 l0 -89 -32 0 -33 0 0 73 c0
132 50 252 146 356 97 105 273 206 338 194 21 -4 33 -1 43 13 8 12 36 23 71
30 70 14 289 18 297 5z m-616 -437 c18 -14 36 -35 42 -45 9 -18 7 -19 -15 -13
-42 10 -71 -3 -91 -40 -18 -34 -18 -36 -1 -55 17 -19 17 -20 -3 -31 -13 -6
-21 -21 -21 -36 0 -24 -2 -25 -52 -22 l-53 3 -3 58 c-6 107 62 207 140 207 14
0 40 -12 57 -26z m641 -7 c19 -12 43 -38 54 -57 l20 -34 -24 17 c-36 25 -65
21 -94 -14 -32 -37 -33 -63 -5 -83 l21 -14 -21 -14 c-11 -7 -21 -19 -21 -26 0
-10 -18 -12 -72 -10 l-73 3 -3 33 c-6 57 26 142 68 184 31 31 45 38 77 38 25
0 53 -9 73 -23z m-805 -307 c42 -44 88 -54 141 -30 l43 19 -6 -32 c-16 -87
-44 -107 -156 -107 -119 0 -147 23 -147 118 0 65 75 84 125 32z m135 21 c24
-7 24 -8 5 -18 -41 -22 -85 -20 -116 7 l-24 19 55 0 c30 -1 66 -4 80 -8z m478
-40 c29 -44 80 -81 112 -81 20 0 5 -24 -26 -40 -37 -19 -159 -18 -199 1 -36
17 -51 46 -60 117 l-7 52 74 0 75 0 31 -49z m132 -1 c0 -44 -3 -50 -20 -50
-32 0 -76 26 -99 59 -12 16 -21 32 -21 35 0 3 32 6 70 6 l70 0 0 -50z m110 27
c0 -2 -13 -16 -30 -32 l-30 -29 0 26 c0 26 3 28 53 37 4 0 7 0 7 -2z m-524
-169 c24 -24 44 -48 44 -55 0 -25 -63 -53 -117 -53 -28 0 -59 3 -68 6 -14 6
-13 8 5 21 23 16 27 58 6 70 -9 6 -11 15 -5 31 7 18 16 22 50 22 35 0 48 -6
85 -42z m-1296 -27 c5 -11 10 -48 10 -82 0 -62 1 -64 48 -112 l47 -48 0 -104
c-1 -140 -12 -152 -167 -170 -36 -4 -69 -15 -90 -30 -54 -40 -131 -85 -155
-91 -36 -10 -73 4 -85 32 -11 23 -7 29 42 79 29 30 66 59 82 66 31 13 36 27
13 35 -22 9 -77 -30 -135 -93 l-51 -56 -24 23 c-54 51 -16 114 103 172 34 17
62 34 62 39 0 23 -29 18 -91 -14 -42 -23 -69 -32 -69 -24 0 25 52 87 93 111
49 28 182 70 195 62 6 -3 13 -18 17 -33 11 -46 34 -76 49 -64 11 9 10 18 -5
49 -39 78 -41 172 -5 227 29 45 97 60 116 26z m1993 -118 c9 -17 33 -44 52
-60 l35 -30 -41 -47 c-23 -26 -45 -44 -50 -39 -7 8 -109 258 -109 269 0 2 19
13 43 23 l42 18 6 -51 c3 -28 13 -65 22 -83z m-860 112 c-3 -9 -8 -14 -10 -11
-3 3 -2 9 2 15 9 16 15 13 8 -4z m786 -170 c28 -71 51 -135 51 -141 0 -16 -88
-71 -151 -95 -28 -11 -53 -19 -54 -17 -2 2 -13 71 -24 153 -12 83 -23 159 -26
170 -3 17 7 24 68 46 40 14 75 23 78 20 3 -3 29 -64 58 -136z m-199 -85 c13
-93 21 -173 17 -176 -10 -10 -174 -17 -179 -8 -3 5 -9 81 -13 170 l-7 161 64
10 c34 6 70 11 78 12 13 1 20 -31 40 -169z m-196 134 c3 -9 6 -83 6 -165 l0
-149 -27 6 c-36 9 -124 42 -142 53 -11 7 -12 31 -5 132 l9 124 60 6 c33 3 67
6 76 7 9 1 20 -5 23 -14z m-181 -76 c-3 -46 -8 -100 -12 -121 l-6 -38 -43 33
c-58 45 -94 100 -96 145 -1 47 25 63 106 63 l57 0 -6 -82z m-1146 -36 c15 -9
45 -160 41 -204 -3 -33 -4 -33 -53 -33 l-50 0 4 115 c3 110 8 130 36 130 6 0
15 -4 22 -8z m193 -82 c178 -22 350 -76 449 -142 l49 -31 -31 -63 -30 -62 -32
24 c-88 67 -292 137 -442 150 l-71 7 -6 36 c-4 20 -9 48 -12 64 -7 32 -3 32
126 17z m586 -191 l33 -20 -61 -117 c-34 -64 -62 -118 -64 -120 -2 -3 -63 25
-73 34 -4 3 122 244 128 244 2 0 19 -9 37 -21z m1218 -32 c16 -12 9 -23 -74
-127 -51 -63 -93 -117 -95 -119 -2 -2 -13 12 -24 30 -43 70 -19 166 51 209 38
23 115 27 142 7z m-976 -62 c17 -5 22 -11 16 -23 -15 -37 -16 -64 -3 -73 8 -6
50 -9 94 -8 44 1 89 -1 99 -6 11 -5 30 -4 45 2 19 7 39 5 76 -8 57 -21 108
-24 136 -8 16 8 20 19 17 47 l-3 37 69 8 c38 4 94 13 125 20 l57 13 -1 -71 0
-72 -179 -7 c-283 -10 -382 -7 -525 14 -74 11 -136 21 -138 24 -2 2 10 32 27
66 23 46 35 60 48 56 9 -2 27 -7 40 -11z m1161 -79 l23 -24 -93 -116 -93 -116
-29 23 c-16 12 -29 26 -29 30 0 15 173 227 186 227 7 0 23 -11 35 -24z m86
-208 c59 -55 65 -64 65 -100 0 -55 -47 -146 -120 -235 l-60 -72 -36 24 c-19
13 -44 27 -55 30 -17 6 -14 13 32 63 29 31 63 81 77 111 23 50 24 55 9 85 -8
18 -31 43 -50 56 l-35 24 36 47 c44 55 43 55 137 -33z m-1099 -6 c60 -5 138
-8 174 -6 36 2 173 8 304 15 l240 12 28 -32 c16 -18 27 -38 25 -44 -6 -18
-639 -31 -782 -16 -134 14 -333 44 -341 52 -3 3 1 18 10 34 l15 30 109 -18
c60 -10 158 -22 218 -27z m973 -101 c12 -21 -14 -81 -55 -129 l-29 -33 -31 89
c-27 75 -29 89 -15 85 9 -2 27 7 40 21 l24 25 28 -20 c16 -11 33 -28 38 -38z
m-1194 -112 c241 -42 428 -47 785 -21 146 11 266 19 268 17 2 -1 4 -15 5 -30
2 -24 -3 -29 -38 -42 -104 -36 -282 -64 -450 -70 -182 -6 -299 3 -469 38 -96
19 -303 83 -319 98 -12 12 3 41 22 41 9 0 97 -14 196 -31z m1088 -160 c62 -32
115 -69 121 -84 3 -8 -8 -23 -25 -36 -38 -26 -51 -22 -139 52 l-63 52 23 19
c28 23 32 23 83 -3z m-55 -101 c81 -65 92 -77 92 -105 0 -46 26 -43 39 5 7 24
21 43 40 54 28 15 30 15 50 -6 49 -52 31 -143 -42 -224 -94 -101 -182 -121
-293 -66 -146 73 -214 137 -214 200 1 96 117 209 220 213 9 1 57 -32 108 -71z
m426 -409 c37 -29 36 -76 -4 -114 -23 -22 -41 -29 -85 -33 l-55 -4 0 31 c0 45
23 94 55 119 35 27 55 28 89 1z"/>
<path d="M3795 3555 c-36 -47 -62 -69 -93 -81 -58 -23 -92 -57 -92 -91 0 -41
24 -69 65 -76 20 -3 52 -20 71 -36 74 -66 123 -46 134 54 6 57 0 121 -22 232
l-13 62 -50 -64z m49 -59 c18 -60 21 -171 7 -209 -16 -40 -37 -40 -86 3 -31
27 -56 40 -75 40 -32 0 -60 23 -60 49 0 24 37 56 84 72 23 8 53 31 74 57 19
23 36 42 37 42 2 0 11 -24 19 -54z"/>
<path d="M2514 3341 c-49 -22 -92 -74 -100 -122 l-5 -34 19 40 c70 144 260
153 330 15 12 -24 22 -36 22 -27 0 44 -61 116 -113 136 -43 16 -107 13 -153
-8z"/>
<path d="M3176 3349 c-71 -17 -136 -87 -136 -146 0 -10 9 0 19 22 63 141 268
141 332 1 10 -22 19 -35 19 -27 0 8 -9 34 -21 58 -35 72 -127 112 -213 92z"/>
<path d="M2740 2704 c-10 -11 -9 -19 4 -39 26 -40 54 -27 42 19 -7 29 -31 40
-46 20z"/>
<path d="M3510 1337 c-30 -15 -35 -60 -7 -65 44 -9 90 57 51 72 -19 7 -14 8
-44 -7z m45 -16 c6 -10 -25 -31 -44 -31 -15 0 -14 27 2 33 20 9 35 8 42 -2z"/>
<path d="M3580 1280 c-6 -12 -10 -33 -8 -48 2 -21 8 -27 28 -27 19 0 26 7 34
32 15 53 -30 88 -54 43z m40 -14 c0 -22 -11 -46 -21 -46 -10 0 -12 43 -2 53
11 12 23 8 23 -7z"/>
</g>
</svg>
