<?xml version="1.0" standalone="no"?>
<!DOCTYPE svg PUBLIC "-//W3C//DTD SVG 20010904//EN"
 "http://www.w3.org/TR/2001/REC-SVG-20010904/DTD/svg10.dtd">
<svg version="1.0" xmlns="http://www.w3.org/2000/svg"
 width="842.000000pt" height="595.000000pt" viewBox="0 0 842.000000 595.000000"
 preserveAspectRatio="xMidYMid meet">

<g transform="translate(0.000000,595.000000) scale(0.100000,-0.100000)"
fill="#000000" stroke="none">
<path d="M4980 5375 c-7 -8 -80 -79 -162 -157 l-149 -142 7 149 7 148 -249 -6
c-137 -4 -324 -7 -416 -7 l-168 0 -1 -42 c-2 -30 -3 -35 -6 -15 l-4 27 -255 0
-254 0 0 -40 c0 -39 -1 -40 -35 -40 l-35 0 0 -155 0 -154 -272 195 c-198 142
-274 191 -280 182 -4 -7 -8 -32 -8 -55 0 -48 -1 -49 -36 -27 -13 9 -26 15 -29
13 -2 -3 -7 -51 -11 -107 -4 -56 -10 -105 -14 -107 -4 -2 -22 16 -40 41 -60
84 -179 162 -306 200 -44 14 -91 18 -189 18 -113 0 -140 -4 -210 -27 -44 -15
-109 -43 -144 -64 -78 -46 -234 -192 -286 -268 -21 -30 -40 -53 -42 -51 -3 2
1 92 8 200 6 108 10 198 8 200 -5 5 -332 26 -408 26 l-61 0 0 -40 0 -41 -33 6
-34 7 -6 -78 c-4 -42 -7 -117 -7 -166 l0 -88 -45 0 -45 0 0 220 0 220 -214 0
-214 0 -6 -35 c-6 -32 -10 -35 -40 -35 l-33 0 -6 -272 c-4 -150 -10 -414 -13
-585 l-7 -313 100 0 c55 0 161 -3 236 -7 l137 -6 0 41 c0 41 1 42 35 42 l35 0
0 150 0 150 34 0 34 0 -5 -208 -6 -209 153 -6 c84 -4 182 -7 217 -7 l63 0 0
41 0 41 34 -6 c32 -6 34 -5 40 31 3 21 6 70 6 110 0 39 4 74 8 77 5 3 19 -14
32 -37 36 -64 128 -155 200 -197 183 -108 430 -118 627 -25 104 48 154 86 255
189 l90 91 -6 -40 c-3 -22 -8 -77 -12 -122 -6 -76 -5 -83 12 -83 11 0 118 -9
239 -20 121 -11 223 -20 228 -20 4 0 7 18 7 40 0 39 1 40 34 40 l34 0 8 101
c4 68 10 99 18 96 6 -3 136 -82 289 -176 153 -94 280 -171 282 -171 3 0 5 25
5 55 0 59 4 63 34 40 11 -8 27 -13 36 -10 10 3 190 -4 401 -15 211 -11 392
-20 402 -20 13 0 17 9 17 40 0 39 1 40 35 40 19 0 35 3 35 8 0 4 7 86 15 182
8 96 12 177 9 179 -3 3 -66 7 -140 9 l-134 4 0 29 c0 26 3 29 34 29 39 0 40 3
51 165 3 50 8 107 11 128 6 36 7 37 49 37 24 0 45 4 47 8 2 5 87 -81 191 -191
l187 -198 0 -245 0 -244 245 0 245 0 0 40 c0 39 1 40 34 40 l33 0 6 83 c4 45
7 150 7 232 l0 150 225 232 225 231 -174 156 c-96 86 -179 156 -183 156 -4 0
-21 -18 -37 -40 -17 -22 -33 -40 -37 -40 -4 0 -61 -68 -125 -152 l-118 -151
-28 34 c-16 19 -88 112 -161 206 -73 95 -135 173 -138 173 -4 0 -12 -7 -19
-15z m-370 -200 l0 -125 -167 5 c-93 3 -180 8 -194 10 -23 3 -28 0 -33 -27 -3
-17 -6 -63 -6 -103 l0 -72 116 5 116 5 -6 -69 c-4 -38 -9 -90 -12 -115 l-5
-45 -113 4 -113 4 -7 -92 c-4 -51 -6 -94 -4 -95 2 -2 101 -7 221 -11 l218 -7
-5 -51 c-3 -28 -8 -81 -11 -118 l-7 -68 -51 0 c-51 0 -670 31 -674 34 0 0 7
224 18 496 10 272 19 510 19 528 l0 32 350 0 350 0 0 -125z m-3905 -111 l8
-226 96 6 c53 4 117 9 144 12 l47 6 0 188 c0 104 3 191 8 193 9 4 326 -13 331
-19 5 -5 -56 -1024 -61 -1030 -2 -1 -70 0 -152 3 l-149 6 4 211 4 211 -130 -4
c-71 -1 -134 -5 -138 -8 -5 -3 -6 -86 -2 -184 l8 -179 -173 0 -173 0 7 308 c3
169 9 403 12 520 l7 212 147 0 148 0 7 -226z m4454 16 c89 -115 165 -211 169
-213 4 -3 78 87 165 199 l159 204 119 -106 c66 -59 122 -111 125 -116 4 -5
-87 -103 -201 -218 l-207 -208 -6 -221 -5 -221 -178 0 -179 0 0 228 -1 227
-193 205 -194 205 127 122 c69 67 129 122 132 123 3 0 79 -94 168 -210z
m-1389 173 c0 -46 -60 -1046 -62 -1048 -2 -1 -147 86 -323 195 -198 122 -322
193 -326 186 -4 -6 -9 -87 -13 -181 -4 -93 -9 -171 -11 -173 -4 -4 -347 26
-350 30 -3 4 76 943 80 946 2 2 145 -97 317 -221 l313 -225 3 254 2 254 185 0
c170 0 185 -1 185 -17z m-1537 -38 c179 -47 328 -186 372 -349 25 -92 17 -228
-18 -314 -73 -177 -238 -318 -430 -369 -73 -19 -229 -21 -302 -4 -153 37 -283
139 -351 277 -39 77 -39 79 -39 198 0 145 14 193 87 302 80 120 231 226 370
260 74 17 241 17 311 -1z"/>
<path d="M1953 4941 c-89 -31 -149 -87 -178 -172 -33 -91 -13 -174 57 -246
138 -141 408 -67 465 126 58 200 -136 364 -344 292z m112 -143 c37 -19 85 -71
96 -106 15 -44 3 -117 -22 -141 -45 -41 -155 -49 -220 -15 -94 48 -127 202
-53 250 50 33 146 39 199 12z"/>
<path d="M7247 4792 c-20 -22 -22 -75 -3 -91 10 -9 11 -20 3 -49 l-10 -38
-109 4 c-160 7 -224 -22 -235 -107 l-6 -41 -17 38 c-10 20 -22 55 -28 77 -15
52 -63 105 -96 105 -27 0 -46 -25 -46 -59 0 -19 -3 -18 -44 12 -24 17 -46 41
-48 52 -1 10 -15 26 -29 34 -22 12 -29 12 -55 0 -23 -11 -30 -22 -32 -50 -5
-54 19 -73 79 -65 43 6 51 4 80 -22 l33 -29 -75 -43 c-132 -76 -169 -102 -204
-143 -42 -49 -71 -122 -80 -202 -3 -33 -16 -82 -27 -110 -35 -83 -48 -146 -48
-227 0 -70 -2 -78 -19 -78 -11 0 -21 -9 -25 -22 -9 -34 -8 -38 9 -38 20 0 19
-14 -1 -31 -57 -48 -114 -181 -114 -269 0 -67 34 -171 73 -222 18 -24 36 -48
40 -55 4 -6 -28 1 -71 17 -89 33 -248 65 -367 75 -77 7 -81 8 -95 39 -13 28
-21 32 -67 36 -41 4 -59 12 -92 42 -41 36 -41 37 -41 107 0 83 -18 111 -73
111 -80 0 -147 -77 -147 -170 l0 -45 -88 -27 c-48 -15 -107 -40 -131 -56 -57
-38 -103 -107 -99 -147 1 -17 -6 -42 -15 -55 -29 -41 -22 -93 17 -134 18 -20
40 -36 49 -36 9 0 19 -9 22 -20 8 -25 55 -50 92 -50 37 1 101 30 173 81 48 34
70 42 129 49 38 5 86 16 106 24 26 11 53 14 96 9 52 -5 64 -3 89 16 16 11 42
21 58 21 54 0 193 -31 278 -61 73 -27 204 -99 204 -114 0 -2 -10 -25 -22 -50
-12 -24 -20 -46 -17 -48 2 -2 49 -27 104 -56 55 -29 104 -56 108 -60 4 -5 -16
-60 -45 -124 -44 -95 -60 -121 -93 -145 -57 -41 -142 -137 -169 -191 -50 -98
-61 -150 -61 -276 0 -110 2 -125 27 -178 33 -71 82 -131 142 -176 25 -19 46
-40 46 -46 0 -7 -16 -46 -35 -88 -19 -42 -35 -87 -35 -101 0 -13 15 -44 34
-69 l34 -44 -19 -79 c-10 -44 -26 -125 -34 -181 -12 -81 -20 -108 -39 -128
-13 -14 -30 -49 -36 -76 -10 -41 -15 -49 -29 -43 -88 38 -129 46 -231 42 -89
-3 -114 -8 -162 -31 -65 -32 -122 -90 -150 -155 -30 -66 -23 -166 15 -215 54
-72 123 -100 359 -148 428 -86 648 -24 648 184 0 21 -12 73 -26 115 -20 60
-23 81 -15 100 18 38 13 76 -20 140 l-30 62 40 161 c23 88 41 162 41 164 0 1
17 6 38 10 49 9 129 44 135 58 2 7 10 44 17 82 l12 71 163 -1 162 0 22 -123
23 -122 36 -19 c21 -10 63 -24 95 -31 31 -7 57 -18 57 -24 0 -6 9 -60 20 -120
l18 -109 -28 -27 c-53 -49 -60 -150 -14 -201 15 -17 15 -22 0 -65 -22 -64 -21
-150 2 -194 31 -58 123 -98 255 -111 135 -14 358 1 467 31 187 53 288 154 264
263 -18 85 -90 179 -167 219 -85 43 -228 33 -339 -23 l-37 -19 -7 35 c-7 40
-39 85 -59 85 -8 0 -18 22 -25 57 -7 32 -25 104 -41 161 l-29 104 39 44 c61
69 60 76 -14 241 l-67 146 36 36 36 35 37 -36 c21 -19 57 -49 81 -66 24 -17
60 -57 81 -89 79 -120 155 -165 278 -166 110 0 111 13 4 68 -51 26 -113 66
-139 90 l-46 42 59 18 c82 23 157 97 174 171 28 119 -49 224 -164 224 -89 0
-173 -69 -196 -162 -7 -27 -17 -47 -22 -45 -5 1 -20 22 -34 45 l-25 42 59 55
c80 74 116 141 116 216 0 38 -5 65 -17 81 -9 13 -27 38 -41 56 l-24 33 66 81
c85 106 123 185 123 257 0 53 -1 55 -62 116 -35 34 -74 69 -87 78 l-25 17 33
41 c18 22 29 44 25 49 -23 20 -211 167 -227 176 -14 8 -7 16 47 52 217 142
286 375 170 567 l-33 56 14 62 c15 64 18 169 6 222 -5 22 0 43 18 79 37 72 36
186 -1 276 -15 36 -34 96 -42 133 -21 105 -104 213 -138 179 -6 -6 -20 -44
-30 -84 -15 -62 -24 -79 -59 -110 -23 -21 -45 -38 -50 -38 -5 0 -15 12 -23 28
-18 35 -112 124 -154 146 -28 14 -30 19 -20 35 18 29 -7 54 -49 49 -44 -5 -43
15 2 55 59 52 40 127 -32 127 -16 0 -37 -8 -46 -18z m-469 -172 c13 -16 25
-44 29 -62 3 -18 12 -45 19 -60 18 -35 18 -48 -1 -48 -8 0 -21 13 -29 29 -9
16 -26 42 -39 57 -19 23 -23 38 -19 72 2 23 7 42 11 42 4 0 17 -13 29 -30z
m566 -19 c3 -5 -1 -14 -8 -20 -16 -13 -32 2 -21 19 8 12 22 13 29 1z m-117
-15 c2 -2 -3 -28 -11 -57 l-16 -54 -146 0 -146 0 6 30 c8 39 40 71 85 84 32 9
218 7 228 -3z m133 -53 c25 -14 64 -41 87 -60 42 -33 89 -90 81 -98 -2 -2 -42
11 -88 30 -47 19 -109 40 -137 46 -29 7 -53 13 -53 15 0 2 5 26 11 54 12 58
17 59 99 13z m422 -44 c9 -14 22 -54 28 -89 6 -34 23 -88 38 -119 52 -113 28
-262 -51 -312 -46 -29 -136 -22 -207 17 -90 49 -152 144 -136 208 9 37 61 92
125 133 100 63 120 92 146 206 l6 29 17 -24 c10 -12 25 -35 34 -49z m-1052 1
c11 -21 20 -43 20 -48 0 -5 -33 -23 -73 -40 -98 -44 -183 -101 -253 -170 l-57
-57 5 36 c9 52 44 122 81 157 24 22 237 158 254 162 2 0 12 -18 23 -40z m455
-59 c3 -6 1 -28 -4 -50 -9 -42 0 -61 30 -61 17 0 29 27 29 68 0 12 7 25 15 28
19 8 145 -30 208 -62 l48 -25 -31 -26 c-64 -53 -81 -143 -42 -219 27 -52 101
-120 160 -145 65 -29 147 -35 194 -16 l37 16 7 -36 c9 -48 -1 -159 -20 -213
l-15 -44 38 -57 c48 -71 64 -131 59 -211 -8 -121 -85 -234 -220 -325 -54 -35
-85 -49 -127 -54 -37 -5 -69 -18 -99 -39 -45 -32 -149 -60 -274 -75 l-57 -6
-3 33 c-4 42 -29 46 -114 20 -44 -14 -66 -16 -82 -9 -15 7 -30 7 -47 -1 -21
-10 -33 -7 -81 18 -68 37 -87 37 -111 5 l-18 -25 -70 23 c-146 50 -294 141
-359 220 -106 130 -121 272 -44 408 l31 54 13 -54 c6 -30 20 -61 30 -68 31
-23 93 -34 172 -32 58 2 77 -1 80 -12 10 -38 29 -61 63 -76 30 -13 36 -20 27
-30 -18 -22 -2 -89 33 -138 44 -61 156 -135 250 -165 102 -34 254 -34 349 -1
87 30 178 91 245 163 l55 59 49 -7 c65 -8 101 0 95 23 -4 15 -14 17 -57 15
-40 -2 -61 3 -91 20 -59 35 -79 68 -84 141 -3 53 0 67 20 97 13 19 40 46 61
59 39 25 49 51 20 51 -29 0 -82 -43 -114 -92 -26 -41 -41 -51 -122 -86 -120
-52 -212 -79 -317 -92 -86 -10 -246 -13 -222 -3 15 6 42 56 42 78 0 23 -78
101 -118 118 l-32 13 26 14 c24 14 28 13 50 -13 12 -15 26 -27 29 -27 14 0 3
29 -19 49 -14 13 -22 29 -19 37 9 23 -7 16 -49 -22 -22 -19 -41 -34 -42 -32
-2 2 -1 20 2 41 l4 37 62 0 61 0 13 -67 c23 -121 55 -145 203 -151 81 -4 103
-1 142 16 37 16 47 27 55 55 5 19 27 52 49 74 48 48 68 110 66 211 -1 82 -33
163 -79 196 -34 24 -96 32 -134 16 -74 -31 -128 -140 -117 -236 l5 -44 -104 0
c-63 0 -104 -4 -104 -10 0 -5 -25 -10 -55 -10 -30 0 -55 5 -55 10 0 6 -6 10
-13 10 -11 0 -12 11 -5 54 37 211 -143 328 -257 167 -28 -40 -30 -49 -30 -132
l0 -89 -32 0 -33 0 0 73 c0 132 50 252 146 356 97 105 273 206 338 194 21 -4
33 -1 43 13 8 12 36 23 71 30 70 14 289 18 297 5z m-616 -437 c18 -14 36 -35
42 -45 9 -18 7 -19 -15 -13 -42 10 -71 -3 -91 -40 -18 -34 -18 -36 -1 -55 17
-19 17 -20 -3 -31 -13 -6 -21 -21 -21 -36 0 -24 -2 -25 -52 -22 l-53 3 -3 58
c-6 107 62 207 140 207 14 0 40 -12 57 -26z m641 -7 c19 -12 43 -38 54 -57
l20 -34 -24 17 c-36 25 -65 21 -94 -14 -32 -37 -33 -63 -5 -83 l21 -14 -21
-14 c-11 -7 -21 -19 -21 -26 0 -10 -18 -12 -72 -10 l-73 3 -3 33 c-6 57 26
142 68 184 31 31 45 38 77 38 25 0 53 -9 73 -23z m-805 -307 c42 -44 88 -54
141 -30 l43 19 -6 -32 c-16 -87 -44 -107 -156 -107 -119 0 -147 23 -147 118 0
65 75 84 125 32z m135 21 c24 -7 24 -8 5 -18 -41 -22 -85 -20 -116 7 l-24 19
55 0 c30 -1 66 -4 80 -8z m478 -40 c29 -44 80 -81 112 -81 20 0 5 -24 -26 -40
-37 -19 -159 -18 -199 1 -36 17 -51 46 -60 117 l-7 52 74 0 75 0 31 -49z m132
-1 c0 -44 -3 -50 -20 -50 -32 0 -76 26 -99 59 -12 16 -21 32 -21 35 0 3 32 6
70 6 l70 0 0 -50z m110 27 c0 -2 -13 -16 -30 -32 l-30 -29 0 26 c0 26 3 28 53
37 4 0 7 0 7 -2z m-524 -169 c24 -24 44 -48 44 -55 0 -25 -63 -53 -117 -53
-28 0 -59 3 -68 6 -14 6 -13 8 5 21 23 16 27 58 6 70 -9 6 -11 15 -5 31 7 18
16 22 50 22 35 0 48 -6 85 -42z m-1296 -27 c5 -11 10 -48 10 -82 0 -62 1 -64
48 -112 l47 -48 0 -104 c-1 -140 -12 -152 -167 -170 -36 -4 -69 -15 -90 -30
-54 -40 -131 -85 -155 -91 -36 -10 -73 4 -85 32 -11 23 -7 29 42 79 29 30 66
59 82 66 31 13 36 27 13 35 -22 9 -77 -30 -135 -93 l-51 -56 -24 23 c-54 51
-16 114 103 172 34 17 62 34 62 39 0 23 -29 18 -91 -14 -42 -23 -69 -32 -69
-24 0 25 52 87 93 111 49 28 182 70 195 62 6 -3 13 -18 17 -33 11 -46 34 -76
49 -64 11 9 10 18 -5 49 -39 78 -41 172 -5 227 29 45 97 60 116 26z m1993
-118 c9 -17 33 -44 52 -60 l35 -30 -41 -47 c-23 -26 -45 -44 -50 -39 -7 8
-109 258 -109 269 0 2 19 13 43 23 l42 18 6 -51 c3 -28 13 -65 22 -83z m-860
112 c-3 -9 -8 -14 -10 -11 -3 3 -2 9 2 15 9 16 15 13 8 -4z m786 -170 c28 -71
51 -135 51 -141 0 -16 -88 -71 -151 -95 -28 -11 -53 -19 -54 -17 -2 2 -13 71
-24 153 -12 83 -23 159 -26 170 -3 17 7 24 68 46 40 14 75 23 78 20 3 -3 29
-64 58 -136z m-199 -85 c13 -93 21 -173 17 -176 -10 -10 -174 -17 -179 -8 -3
5 -9 81 -13 170 l-7 161 64 10 c34 6 70 11 78 12 13 1 20 -31 40 -169z m-196
134 c3 -9 6 -83 6 -165 l0 -149 -27 6 c-36 9 -124 42 -142 53 -11 7 -12 31 -5
132 l9 124 60 6 c33 3 67 6 76 7 9 1 20 -5 23 -14z m-181 -76 c-3 -46 -8 -100
-12 -121 l-6 -38 -43 33 c-58 45 -94 100 -96 145 -1 47 25 63 106 63 l57 0 -6
-82z m-1146 -36 c15 -9 45 -160 41 -204 -3 -33 -4 -33 -53 -33 l-50 0 4 115
c3 110 8 130 36 130 6 0 15 -4 22 -8z m193 -82 c178 -22 350 -76 449 -142 l49
-31 -31 -63 -30 -62 -32 24 c-88 67 -292 137 -442 150 l-71 7 -6 36 c-4 20 -9
48 -12 64 -7 32 -3 32 126 17z m586 -191 l33 -20 -61 -117 c-34 -64 -62 -118
-64 -120 -2 -3 -63 25 -73 34 -4 3 122 244 128 244 2 0 19 -9 37 -21z m1218
-32 c16 -12 9 -23 -74 -127 -51 -63 -93 -117 -95 -119 -2 -2 -13 12 -24 30
-43 70 -19 166 51 209 38 23 115 27 142 7z m-976 -62 c17 -5 22 -11 16 -23
-15 -37 -16 -64 -3 -73 8 -6 50 -9 94 -8 44 1 89 -1 99 -6 11 -5 30 -4 45 2
19 7 39 5 76 -8 57 -21 108 -24 136 -8 16 8 20 19 17 47 l-3 37 69 8 c38 4 94
13 125 20 l57 13 -1 -71 0 -72 -179 -7 c-283 -10 -382 -7 -525 14 -74 11 -136
21 -138 24 -2 2 10 32 27 66 23 46 35 60 48 56 9 -2 27 -7 40 -11z m1161 -79
l23 -24 -93 -116 -93 -116 -29 23 c-16 12 -29 26 -29 30 0 15 173 227 186 227
7 0 23 -11 35 -24z m86 -208 c59 -55 65 -64 65 -100 0 -55 -47 -146 -120 -235
l-60 -72 -36 24 c-19 13 -44 27 -55 30 -17 6 -14 13 32 63 29 31 63 81 77 111
23 50 24 55 9 85 -8 18 -31 43 -50 56 l-35 24 36 47 c44 55 43 55 137 -33z
m-1099 -6 c60 -5 138 -8 174 -6 36 2 173 8 304 15 l240 12 28 -32 c16 -18 27
-38 25 -44 -6 -18 -639 -31 -782 -16 -134 14 -333 44 -341 52 -3 3 1 18 10 34
l15 30 109 -18 c60 -10 158 -22 218 -27z m973 -101 c12 -21 -14 -81 -55 -129
l-29 -33 -31 89 c-27 75 -29 89 -15 85 9 -2 27 7 40 21 l24 25 28 -20 c16 -11
33 -28 38 -38z m-1194 -112 c241 -42 428 -47 785 -21 146 11 266 19 268 17 2
-1 4 -15 5 -30 2 -24 -3 -29 -38 -42 -104 -36 -282 -64 -450 -70 -182 -6 -299
3 -469 38 -96 19 -303 83 -319 98 -12 12 3 41 22 41 9 0 97 -14 196 -31z
m1088 -160 c62 -32 115 -69 121 -84 3 -8 -8 -23 -25 -36 -38 -26 -51 -22 -139
52 l-63 52 23 19 c28 23 32 23 83 -3z m-55 -101 c81 -65 92 -77 92 -105 0 -46
26 -43 39 5 7 24 21 43 40 54 28 15 30 15 50 -6 49 -52 31 -143 -42 -224 -94
-101 -182 -121 -293 -66 -146 73 -214 137 -214 200 1 96 117 209 220 213 9 1
57 -32 108 -71z m432 -418 c54 -54 -20 -140 -121 -140 -31 0 -31 0 -24 43 16
98 92 150 145 97z m-1578 -598 c48 -4 58 -8 53 -21 -14 -45 -75 -298 -75 -312
0 -26 -40 -70 -77 -85 -42 -18 -105 -4 -128 29 -25 36 -19 126 26 343 l21 101
61 -25 c33 -13 87 -27 119 -30z m1143 -195 c19 -75 36 -163 37 -195 l3 -57
-51 -9 c-67 -11 -160 8 -175 35 -6 11 -19 75 -29 142 -11 67 -22 136 -26 154
l-6 31 53 7 c30 4 74 15 99 24 25 10 48 15 52 12 4 -4 23 -68 43 -144z m-1583
-304 c50 -50 -25 -93 -99 -57 -38 19 -50 41 -39 71 9 23 110 13 138 -14z
m2059 7 c27 -15 24 -55 -7 -79 -32 -25 -96 -28 -118 -5 -20 19 -20 24 0 52 27
38 85 53 125 32z m-1972 -303 c1 31 20 39 29 13 7 -19 10 -20 20 -7 15 18 50
11 75 -14 16 -17 15 -23 -5 -20 -11 1 -10 -21 1 -38 13 -20 34 23 25 51 -5 17
-3 20 11 15 9 -4 19 -7 21 -7 9 0 3 -49 -6 -55 -5 -3 -10 0 -10 7 0 7 -10 -3
-23 -22 l-22 -35 -9 58 c-5 31 -13 57 -19 57 -5 0 -7 -7 -4 -15 4 -8 1 -17 -4
-21 -6 -3 -9 -17 -6 -30 2 -13 0 -24 -6 -24 -6 0 -7 20 -4 53 l6 52 -23 -50
c-14 -27 -25 -45 -25 -40 0 6 3 17 9 25 5 8 5 19 1 25 -5 5 -11 19 -14 30 -4
15 -5 13 -6 -7 -1 -18 -7 -28 -16 -28 -9 0 -15 -9 -15 -22 0 -12 -3 -19 -6
-16 -3 4 -2 28 2 55 7 45 8 46 15 18 5 -23 7 -25 8 -8z m212 -53 c-7 -25 -7
-42 -1 -48 14 -14 20 -4 30 51 6 38 8 42 10 18 2 -30 2 -30 10 -5 l8 25 1 -24
c1 -20 3 -22 16 -11 9 7 18 10 22 7 3 -4 -2 -10 -12 -13 -9 -4 -23 -21 -31
-38 -13 -30 -13 -30 -14 -6 -1 25 -1 25 -10 3 -9 -23 -40 -32 -40 -12 0 5 -4
7 -10 4 -11 -7 -13 18 -4 52 4 13 11 20 16 17 6 -4 7 2 3 17 -6 18 -4 21 5 13
9 -9 9 -21 1 -50z m-219 -26 c-6 -6 -7 0 -4 19 5 21 7 23 10 9 2 -10 0 -22 -6
-28z m165 -20 c-3 -8 -6 -5 -6 6 -1 11 2 17 5 13 3 -3 4 -12 1 -19z m147 -27
c-6 -6 -34 20 -34 32 0 6 8 2 19 -9 10 -10 17 -21 15 -23z"/>
<path d="M7725 4345 c-36 -47 -62 -69 -93 -81 -58 -23 -92 -57 -92 -91 0 -41
24 -69 65 -76 20 -3 52 -20 71 -36 74 -66 123 -46 134 54 6 57 0 121 -22 232
l-13 62 -50 -64z m49 -59 c18 -60 21 -171 7 -209 -16 -40 -37 -40 -86 3 -31
27 -56 40 -75 40 -32 0 -60 23 -60 49 0 24 37 56 84 72 23 8 53 31 74 57 19
23 36 42 37 42 2 0 11 -24 19 -54z"/>
<path d="M6444 4131 c-49 -22 -92 -74 -100 -122 l-5 -34 19 40 c70 144 260
153 330 15 12 -24 22 -36 22 -27 0 44 -61 116 -113 136 -43 16 -107 13 -153
-8z"/>
<path d="M7106 4139 c-71 -17 -136 -87 -136 -146 0 -10 9 0 19 22 63 141 268
141 332 1 10 -22 19 -35 19 -27 0 8 -9 34 -21 58 -35 72 -127 112 -213 92z"/>
<path d="M6670 3494 c-10 -11 -9 -19 4 -39 26 -40 54 -27 42 19 -7 29 -31 40
-46 20z"/>
<path d="M7440 2127 c-30 -15 -35 -60 -7 -65 44 -9 90 57 51 72 -19 7 -14 8
-44 -7z m45 -16 c6 -10 -25 -31 -44 -31 -15 0 -14 27 2 33 20 9 35 8 42 -2z"/>
<path d="M7510 2070 c-6 -12 -10 -33 -8 -48 2 -21 8 -27 28 -27 19 0 26 7 34
32 15 53 -30 88 -54 43z m40 -14 c0 -22 -11 -46 -21 -46 -10 0 -12 43 -2 53
11 12 23 8 23 -7z"/>
<path d="M2255 3980 c-101 -16 -103 -17 -107 -53 -3 -27 -7 -32 -33 -35 -16
-2 -33 -7 -36 -10 -8 -9 17 -1171 25 -1179 6 -7 371 14 419 24 26 4 29 8 25
39 -4 33 -3 34 35 34 l38 0 -3 100 c-3 101 -3 101 22 106 74 14 164 49 216 83
51 33 148 129 198 196 14 19 15 17 15 -25 0 -25 -8 -164 -18 -310 -10 -146
-18 -266 -17 -266 2 -3 385 -24 429 -24 l47 0 0 41 0 41 35 -6 35 -7 0 53 c0
29 3 83 6 120 l7 66 42 -56 c80 -109 191 -190 330 -239 74 -26 90 -28 230 -27
135 0 158 3 230 27 118 39 199 91 293 187 78 80 82 87 78 120 -3 19 -8 150
-12 291 l-6 257 -30 6 c-17 3 -64 6 -105 6 -41 0 -73 4 -71 9 2 4 34 75 73
156 l69 147 -24 18 c-14 11 -52 32 -86 49 -209 102 -490 90 -691 -31 -70 -42
-199 -161 -258 -240 l-45 -60 0 160 0 160 -102 6 c-57 3 -154 8 -215 11 l-113
6 0 -40 c0 -40 -1 -41 -34 -41 -33 0 -34 -1 -40 -52 l-7 -51 -18 30 c-51 83
-157 150 -292 184 -68 17 -121 22 -279 24 -107 2 -222 0 -255 -5z m375 -506
c0 -19 -6 -34 -15 -38 -12 -4 -15 6 -15 57 1 59 1 61 15 37 8 -14 14 -39 15
-56z m1630 6 c0 -16 -7 -20 -34 -20 -39 0 -34 11 -52 -145 -7 -60 -7 -60 -20
-30 -16 37 -18 102 -3 143 10 29 42 51 107 71 1 1 2 -8 2 -19z"/>
<path d="M3089 2337 l-25 -82 -35 60 -34 60 -7 -50 c-3 -27 -7 -77 -8 -110
l-3 -60 -7 61 c-17 128 -58 170 -110 114 -27 -28 -28 -29 -33 -9 -3 12 -10 18
-16 14 -6 -3 -20 1 -32 9 -23 16 -47 11 -66 -13 -11 -14 -12 -13 -13 8 0 22
-2 23 -46 17 -26 -3 -57 -6 -70 -6 -18 0 -24 -6 -24 -22 l0 -21 -22 20 c-30
28 -107 58 -117 47 -5 -5 -11 -21 -15 -36 -5 -20 -3 -28 8 -28 18 0 26 -44 26
-148 0 -66 -4 -87 -16 -96 -16 -13 -11 -66 8 -66 5 0 33 16 63 34 l54 35 3
-27 c3 -23 9 -28 48 -34 25 -4 55 -10 68 -13 20 -5 22 -2 22 36 l0 42 25 -27
c29 -31 48 -33 74 -5 32 35 36 70 9 91 -20 15 -24 16 -34 2 -10 -13 -12 -13
-18 2 -3 8 -6 43 -6 77 0 53 2 58 13 43 12 -17 16 -17 43 -3 l29 15 0 -77 c0
-54 6 -90 19 -119 37 -82 97 -60 119 43 3 11 5 3 6 -17 0 -21 -3 -38 -9 -38
-5 0 -10 -14 -10 -31 0 -31 1 -31 38 -25 20 3 45 6 55 6 13 0 17 8 17 35 0 19
-4 35 -10 35 -5 0 -10 19 -9 43 0 37 2 40 11 20 6 -13 14 -23 18 -23 4 0 11
10 15 23 l8 22 4 -24 c3 -13 0 -27 -6 -31 -7 -4 -9 -19 -5 -39 7 -31 8 -32 45
-26 31 5 38 3 41 -12 2 -13 19 -20 70 -29 l67 -10 7 39 c4 28 2 42 -7 48 -21
13 -57 11 -62 -3 -3 -7 -6 13 -6 45 l-1 57 31 0 c30 0 31 1 24 40 -6 33 -4 40
9 40 13 0 16 11 16 51 l0 52 -46 -7 c-26 -3 -57 -6 -70 -6 -24 0 -24 -1 -24
-115 0 -63 -4 -115 -9 -115 -6 0 -42 252 -41 293 0 4 -3 7 -7 7 -5 0 -20 -37
-34 -83z m-599 -9 c18 -13 38 -30 43 -39 14 -22 2 -63 -29 -96 l-26 -28 22 32
c27 41 24 90 -7 111 l-23 14 0 -73 c0 -73 0 -74 37 -106 l38 -32 -22 -20 c-13
-12 -18 -16 -13 -9 14 17 12 34 -6 52 -25 26 -34 19 -34 -30 0 -33 3 -43 13
-39 6 4 1 -2 -13 -13 -14 -12 -27 -18 -30 -15 -3 3 1 8 8 10 9 3 12 41 12 139
0 110 -3 136 -15 140 -8 4 -15 10 -15 15 0 16 26 10 60 -13z m190 -18 c0 -11
-4 -20 -10 -20 -5 0 -10 5 -10 10 0 6 -16 10 -35 10 -35 0 -35 0 -35 -46 0
-45 0 -46 30 -39 18 4 30 2 30 -3 0 -6 -14 -13 -31 -17 -28 -6 -31 -10 -25
-37 3 -17 6 -50 6 -73 0 -37 3 -43 25 -47 13 -3 26 0 28 6 2 6 8 8 12 4 4 -4
5 -14 2 -22 -5 -12 -15 -14 -39 -10 -62 11 -59 2 -53 146 4 73 8 139 11 146 2
7 21 12 49 12 38 0 45 -3 45 -20z m93 13 c3 -5 -5 -8 -18 -8 -13 0 -21 3 -18
8 2 4 10 7 18 7 8 0 16 -3 18 -7z m147 -12 c13 -25 13 -42 -1 -18 -5 9 -16 17
-24 17 -8 0 -19 -8 -24 -17 -14 -24 -14 -7 -1 18 6 10 17 19 25 19 8 0 19 -9
25 -19z m380 -1 c0 -11 -4 -20 -10 -20 -5 0 -10 5 -10 10 0 6 -16 10 -36 10
-29 0 -35 -3 -30 -16 3 -9 6 -29 6 -46 0 -27 2 -30 25 -24 14 4 25 2 25 -4 0
-5 -11 -12 -25 -16 -24 -6 -25 -10 -25 -79 0 -70 1 -73 25 -77 14 -3 25 -1 25
3 0 5 5 9 10 9 6 0 10 -9 10 -20 0 -17 -5 -19 -32 -14 -18 3 -39 7 -45 10 -10
2 -13 40 -13 142 0 76 3 142 7 145 3 4 26 7 50 7 36 0 43 -3 43 -20z m-149
-218 c18 -7 8 -22 -13 -22 -23 0 -23 2 -24 128 l-1 127 15 -115 c8 -63 18
-116 23 -118z m-351 188 c-8 -5 -17 -7 -19 -4 -3 3 1 9 9 14 8 5 17 7 19 4 3
-3 -1 -9 -9 -14z m-160 -10 c0 -11 -7 -20 -15 -20 -8 0 -15 9 -15 20 0 11 7
20 15 20 8 0 15 -9 15 -20z m399 -30 c12 -25 15 -36 6 -26 -8 11 -15 25 -15
30 0 6 -5 4 -10 -4 -13 -20 -13 -190 0 -190 6 0 10 -4 10 -10 0 -5 -10 -10
-23 -10 -22 0 -22 1 -14 88 12 124 18 174 22 170 1 -1 12 -23 24 -48z m221 30
c0 -11 -4 -20 -10 -20 -5 0 -10 9 -10 20 0 11 5 20 10 20 6 0 10 -9 10 -20z
m-350 -60 c0 -25 -3 -56 -7 -69 -6 -23 -7 -23 -14 -5 -9 24 -11 91 -2 122 9
35 23 7 23 -48z m-413 38 c-3 -8 -6 -5 -6 6 -1 11 2 17 5 13 3 -3 4 -12 1 -19z
m447 -93 c-19 -158 -96 -127 -92 37 l1 73 6 -75 c7 -81 14 -100 37 -100 21 0
34 42 35 118 1 60 2 63 10 32 5 -19 6 -57 3 -85z m-262 51 c-2 -29 1 -70 7
-90 l10 -37 -31 6 c-21 5 -33 3 -39 -6 -5 -9 -9 8 -9 44 0 54 1 57 25 57 23 0
25 4 25 40 0 22 3 40 8 40 4 0 5 -24 4 -54z m57 -109 c9 -9 17 -8 31 1 23 14
26 2 10 -29 -26 -48 -62 -1 -73 96 l-6 50 14 -54 c7 -29 18 -58 24 -64z m-189
78 c0 -17 -4 -23 -15 -19 -11 5 -12 11 -4 25 13 26 19 24 19 -6z"/>
<path d="M1470 2355 c-41 -7 -111 -18 -155 -25 -44 -6 -81 -15 -83 -20 -2 -5
-18 0 -35 11 -71 43 -135 15 -144 -64 l-6 -47 -63 0 -64 0 0 -30 0 -30 70 0
c57 0 70 3 70 16 0 11 11 6 40 -18 61 -50 71 -101 11 -57 -17 12 -33 21 -35
18 -3 -2 -8 -27 -11 -56 -8 -59 3 -69 68 -54 58 14 77 36 77 89 0 41 -4 49
-51 92 -39 36 -50 52 -47 71 5 35 30 29 40 -9 9 -35 16 -35 56 1 12 11 22 15
22 9 0 -7 11 -12 24 -12 22 0 23 -4 30 -81 5 -64 4 -84 -7 -93 -8 -6 -17 -23
-21 -38 -6 -27 -5 -28 36 -28 24 0 54 -3 67 -7 23 -6 24 -5 18 33 -4 21 -11
40 -17 42 -6 2 -10 41 -10 93 0 86 1 89 23 89 22 0 22 -2 22 -117 l0 -117 60
-11 c33 -5 86 -9 118 -7 56 4 57 5 57 33 0 16 -4 29 -10 29 -5 0 -10 19 -10
43 0 35 5 46 32 68 l32 26 54 -54 c42 -42 52 -57 43 -66 -8 -8 -14 -9 -19 -1
-4 6 -17 16 -30 23 -25 13 -26 12 -37 -51 -7 -46 14 -61 66 -49 55 14 67 21
79 51 19 45 4 83 -51 133 -51 46 -59 66 -34 87 12 10 17 5 29 -25 l16 -37 40
32 c45 36 47 41 23 62 -50 41 -122 49 -153 18 -20 -20 -20 -20 -62 10 -55 37
-76 40 -168 25z m123 -26 c35 -18 77 -61 77 -79 0 -9 -12 -27 -27 -41 -20 -17
-23 -18 -10 -3 24 29 21 59 -9 83 -15 12 -31 21 -35 21 -5 0 -9 -30 -9 -66 0
-59 2 -65 18 -60 16 6 16 5 0 -8 -14 -10 -18 -28 -18 -75 0 -34 4 -61 10 -61
6 0 10 -4 10 -10 0 -5 -11 -10 -25 -10 -14 0 -25 5 -25 10 0 6 5 10 10 10 14
0 13 267 0 275 -6 4 -8 11 -5 16 8 12 12 11 38 -2z m-73 -19 c0 -11 -4 -20
-10 -20 -5 0 -10 5 -10 10 0 6 -16 10 -35 10 -35 0 -35 0 -35 -46 0 -46 0 -46
30 -40 40 7 39 -10 -1 -19 -28 -6 -31 -10 -25 -37 3 -17 6 -50 6 -73 0 -37 3
-43 25 -47 13 -3 26 0 28 6 2 6 8 8 12 4 4 -4 5 -14 2 -22 -5 -12 -15 -14 -39
-10 -62 11 -59 2 -53 146 4 73 8 139 11 146 2 7 21 12 49 12 38 0 45 -3 45
-20z m-341 -14 c21 -15 28 -27 21 -31 -6 -4 -20 2 -31 14 -29 31 -64 27 -79
-8 -15 -37 -3 -61 57 -117 57 -53 59 -95 6 -123 -17 -8 -29 -9 -43 -1 -15 8
-20 8 -20 -1 0 -7 -2 -10 -5 -7 -3 3 -1 16 4 29 5 13 10 18 10 12 1 -19 68
-16 75 3 11 27 7 34 -46 90 -43 45 -52 62 -52 91 0 25 7 41 23 54 30 25 40 24
80 -5z m619 4 c28 -17 32 -23 21 -36 -10 -13 -13 -11 -23 8 -13 26 -50 35 -72
18 -7 -7 -14 -27 -14 -44 0 -25 11 -42 49 -80 54 -53 62 -70 50 -104 -10 -27
-56 -47 -74 -32 -6 5 -15 7 -18 3 -4 -3 -7 5 -7 18 0 17 3 20 9 11 5 -8 22
-12 42 -10 29 2 35 7 37 30 3 22 -7 37 -47 76 -43 42 -51 55 -51 86 0 36 27
76 53 76 6 0 27 -9 45 -20z m-418 -12 c-1 -21 -2 -22 -14 -5 -25 32 -36 19
-36 -40 0 -32 -3 -88 -7 -125 -5 -59 -4 -68 11 -68 9 0 16 -7 16 -15 0 -17
-55 -21 -65 -5 -3 6 1 10 9 10 13 0 16 16 16 94 0 120 -7 156 -30 156 -10 0
-21 -6 -23 -12 -3 -8 -6 -7 -6 4 -1 17 20 23 97 26 27 2 32 -1 32 -20z m100
-18 c0 -11 -7 -20 -15 -20 -8 0 -15 9 -15 20 0 11 7 20 15 20 8 0 15 -9 15
-20z m64 -32 c3 -13 6 -55 6 -95 l0 -71 -36 11 c-29 9 -37 8 -45 -4 -6 -9 -9
5 -9 44 0 54 1 57 25 57 23 0 25 4 25 40 0 45 23 57 34 18z m81 13 c3 -5 1
-12 -5 -16 -5 -3 -10 1 -10 9 0 18 6 21 15 7z m-590 -71 c-3 -5 -21 -10 -40
-10 -19 0 -37 5 -40 10 -4 6 12 10 40 10 28 0 44 -4 40 -10z"/>
<path d="M511 2348 l-44 -10 6 -49 c7 -57 -15 -173 -44 -234 -18 -37 -19 -38
-19 -12 0 18 -5 27 -16 27 -14 0 -16 8 -10 53 3 28 6 69 6 90 0 33 3 37 25 37
23 0 25 4 25 46 l0 46 -32 -5 c-18 -3 -59 -9 -90 -13 l-58 -6 0 -39 c0 -37 2
-39 30 -39 l30 0 0 -84 c0 -46 -4 -86 -10 -88 -5 -1 -12 -17 -16 -34 l-6 -31
64 -5 c34 -3 64 -1 66 3 2 4 9 6 15 4 7 -2 27 -6 45 -9 26 -4 32 -2 32 12 0
12 3 13 8 4 6 -9 26 -10 73 -6 35 3 83 7 106 8 29 1 49 8 67 25 l26 24 0 -25
c0 -23 5 -25 65 -34 36 -6 68 -8 70 -5 3 2 5 21 5 42 0 33 -4 40 -26 45 -17 4
-29 2 -35 -7 -6 -9 -9 7 -9 44 0 54 1 57 25 57 23 0 25 4 25 40 0 29 4 40 15
40 11 0 15 12 15 51 l0 52 -46 -7 c-26 -3 -57 -6 -70 -6 -19 0 -24 -5 -24 -26
l0 -25 -31 21 c-29 21 -31 21 -50 4 -10 -9 -17 -25 -14 -34 3 -9 -2 -25 -10
-36 -14 -18 -14 -17 -15 13 0 17 5 35 10 38 6 3 10 17 10 31 0 25 -20 31 -65
18 -19 -5 -20 -13 -20 -134 0 -118 -5 -153 -21 -137 -3 3 -15 44 -25 92 -15
68 -17 95 -9 123 12 44 13 62 3 61 -5 -1 -28 -6 -52 -11z m29 -33 c0 -9 -9
-15 -25 -15 -31 0 -33 17 -2 23 12 2 23 5 25 6 1 0 2 -6 2 -14z m124 2 c-2 -7
-8 -65 -13 -128 l-8 -114 -4 128 c-4 115 -2 127 13 127 10 0 15 -5 12 -13z
m245 -9 c0 -13 -3 -17 -6 -10 -2 6 -20 12 -39 12 -34 0 -34 0 -34 -46 0 -44 1
-46 24 -40 14 3 27 2 30 -3 4 -5 -7 -12 -24 -16 -33 -7 -36 -20 -23 -110 l6
-47 34 5 c28 5 34 3 31 -11 -2 -9 -9 -17 -16 -16 -6 1 -26 2 -42 3 -17 0 -33
8 -37 16 -3 9 -2 76 2 150 l7 135 44 0 c39 0 44 -2 43 -22z m-489 -18 c0 -11
-4 -20 -10 -20 -5 0 -10 7 -10 15 0 8 -6 15 -14 15 -16 0 -26 -63 -26 -171 0
-64 3 -79 15 -79 8 0 15 -7 15 -15 0 -10 -11 -15 -35 -15 -38 0 -43 7 -19 24
13 10 14 29 8 129 -6 103 -9 117 -25 117 -9 0 -20 -6 -22 -12 -3 -8 -6 -7 -6
4 -1 17 20 23 97 26 26 2 32 -2 32 -18z m337 -14 c-8 -6 -24 -28 -36 -48 -13
-21 -25 -38 -28 -38 -3 0 7 20 21 44 14 25 26 52 26 62 0 13 3 14 15 4 13 -11
13 -14 2 -24z m116 -6 c3 -13 0 -20 -9 -20 -8 0 -14 9 -14 20 0 11 4 20 9 20
5 0 11 -9 14 -20z m-346 -32 c-3 -8 -6 -5 -6 6 -1 11 2 17 5 13 3 -3 4 -12 1
-19z m263 -70 c0 -72 -9 -95 -25 -67 -4 6 -13 8 -20 5 -12 -4 -45 23 -45 37 0
16 65 104 77 104 10 0 13 -21 13 -79z m-210 -116 c17 -6 11 -22 -9 -22 -10 0
-19 6 -18 13 2 51 -3 57 -39 57 l-37 0 6 -41 c4 -34 3 -40 -11 -36 -10 2 -15
10 -13 18 2 8 8 36 14 63 9 41 12 46 18 28 6 -14 17 -22 33 -22 23 0 23 2 15
38 -5 20 -8 44 -8 52 1 8 10 -21 20 -65 11 -44 24 -81 29 -83z m-83 116 c-3
-7 -5 -2 -5 12 0 14 2 19 5 13 2 -7 2 -19 0 -25z m225 -86 c9 -7 23 -11 30 -7
7 4 5 0 -4 -10 -10 -11 -19 -17 -20 -14 -2 2 -14 17 -28 33 -24 28 -12 28 22
-2z m-192 -12 c0 -5 -7 -10 -15 -10 -8 0 -15 5 -15 10 0 6 7 10 15 10 8 0 15
-4 15 -10z m125 -30 c-27 -12 -35 -12 -35 0 0 6 12 10 28 9 24 0 25 -1 7 -9z"/>
<path d="M2184 2335 c-18 -18 -24 -20 -24 -9 0 12 -8 15 -37 10 -21 -3 -62 -8
-90 -12 l-53 -6 0 -39 c0 -37 2 -39 30 -39 l30 0 0 -81 c0 -58 -4 -85 -15 -95
-8 -9 -15 -26 -15 -40 0 -22 4 -24 44 -24 24 0 51 -3 60 -6 13 -5 16 2 16 35
0 30 -4 41 -15 41 -12 0 -15 15 -15 74 0 85 6 106 29 106 13 0 16 -13 17 -73
2 -92 31 -156 72 -157 22 0 51 39 63 85 l11 45 59 0 c44 0 59 4 59 14 0 8 3
21 6 30 5 14 -4 16 -59 16 l-65 0 -7 43 c-16 92 -57 126 -101 82z m56 -24 c14
-28 12 -38 -4 -16 -8 11 -20 16 -29 12 -11 -4 -14 -2 -10 9 7 20 30 17 43 -5z
m-104 -12 c3 -6 1 -16 -5 -22 -8 -8 -11 -6 -11 7 0 11 -6 16 -17 14 -16 -3
-18 -18 -21 -123 -2 -98 0 -120 13 -127 26 -15 17 -28 -20 -28 -19 0 -35 5
-35 10 0 6 5 10 10 10 6 0 10 48 10 125 0 118 -1 125 -20 125 -11 0 -20 -4
-20 -10 0 -5 -5 -10 -11 -10 -6 0 -9 6 -7 13 8 21 122 35 134 16z m94 -89 c0
-25 -3 -56 -7 -69 -6 -23 -7 -23 -14 -5 -9 24 -11 91 -2 122 9 35 23 7 23 -48z
m35 -60 c-23 -153 -95 -118 -93 45 l1 70 6 -75 c7 -81 14 -100 36 -100 24 0
35 35 36 112 1 69 2 71 11 33 5 -22 6 -60 3 -85z m125 30 c0 -5 -18 -10 -39
-10 -22 0 -43 5 -46 10 -4 6 12 10 39 10 25 0 46 -4 46 -10z"/>
<path d="M1850 2180 l0 -30 70 0 70 0 0 30 0 30 -70 0 -70 0 0 -30z m115 0
c-3 -5 -21 -10 -40 -10 -19 0 -37 5 -40 10 -4 6 12 10 40 10 28 0 44 -4 40
-10z"/>
<path d="M3240 1716 c-6 -8 -10 -25 -8 -38 3 -20 9 -23 43 -23 34 0 40 3 43
23 4 30 -14 52 -43 52 -12 0 -28 -7 -35 -14z m60 -26 c0 -14 -20 -22 -37 -16
-12 5 -13 9 -3 21 11 14 40 10 40 -5z"/>
<path d="M1528 1693 c-25 -4 -27 -7 -21 -36 3 -18 9 -34 13 -37 4 -3 10 -56
14 -117 6 -101 5 -113 -10 -113 -13 0 -15 -6 -10 -32 8 -40 6 -39 46 -28 31 9
73 8 273 -5 74 -5 77 -4 78 18 1 18 2 19 6 3 4 -16 12 -18 54 -12 159 20 146
16 153 48 13 64 9 75 -24 70 -29 -4 -30 -3 -30 35 0 73 12 133 26 133 8 0 14
-11 14 -25 0 -21 5 -25 30 -25 l30 0 0 -89 c0 -49 -4 -91 -9 -93 -5 -1 -12
-15 -16 -29 -6 -26 -5 -27 55 -34 34 -4 63 -6 64 -4 2 2 1 21 -2 42 -3 24 -9
37 -20 37 -12 0 -14 10 -8 61 3 34 6 75 6 90 0 24 4 29 24 29 18 0 26 7 29 23
2 12 5 -7 6 -43 1 -36 4 -89 7 -117 6 -45 4 -53 -10 -53 -10 0 -16 -8 -16 -22
0 -41 12 -49 55 -37 21 6 58 8 82 4 43 -6 43 -6 43 24 0 16 -5 31 -11 33 -7 2
-8 31 -1 98 9 93 9 94 11 29 2 -106 31 -169 77 -169 25 0 49 28 59 70 5 21 1
29 -20 40 -22 12 -28 12 -34 1 -17 -26 -36 52 -26 101 6 26 9 28 17 15 8 -16
12 -15 49 4 28 14 39 25 35 35 -3 9 -6 19 -6 24 0 11 -58 40 -78 40 -9 0 -23
-7 -33 -16 -26 -24 -119 -10 -119 17 0 21 -12 23 -73 12 -24 -4 -36 -10 -33
-18 3 -9 -14 -14 -56 -19 -85 -9 -110 -8 -103 4 7 11 -24 25 -79 35 l-36 7 0
-40 c0 -22 5 -42 10 -44 11 -3 -8 -208 -20 -208 -9 0 -47 185 -38 188 4 2 8
22 8 44 l0 40 -42 -7 c-56 -9 -63 -17 -50 -55 9 -24 8 -48 -4 -103 -23 -113
-21 -110 -59 -104 -21 4 -36 1 -39 -6 -2 -7 -5 14 -5 46 -1 54 0 57 24 57 23
0 25 4 25 40 0 29 4 40 15 40 11 0 15 12 15 48 l0 47 -62 -3 c-40 -2 -67 -9
-74 -18 -17 -22 -94 -8 -94 17 0 19 -17 22 -82 12z m55 -30 c-9 -3 -13 -37
-13 -118 l0 -112 33 6 32 7 5 82 c3 45 2 82 -2 82 -5 0 -8 5 -8 10 0 6 11 10
25 10 14 0 25 -4 25 -10 0 -5 -4 -10 -9 -10 -5 0 -13 -48 -17 -107 -4 -60 -9
-100 -12 -90 -4 18 -13 20 -50 10 -19 -5 -23 -11 -20 -34 3 -19 -1 -30 -10
-34 -20 -7 -30 4 -13 15 11 6 13 33 7 142 -4 73 -11 135 -17 136 -18 7 3 22
29 21 15 0 21 -3 15 -6z m495 -3 c6 0 12 -4 12 -10 0 -5 -6 -10 -14 -10 -16 0
-22 -30 -31 -162 -6 -83 -6 -88 13 -88 12 0 23 9 27 23 6 19 8 20 12 4 9 -33
-5 -47 -45 -47 l-38 0 16 133 c14 111 15 133 4 140 -23 13 -16 30 9 23 12 -3
28 -6 35 -6z m275 3 c-9 -3 -13 -37 -13 -118 l0 -112 33 6 32 7 5 82 c3 45 2
82 -2 82 -5 0 -8 5 -8 10 0 6 11 10 25 10 14 0 25 -4 25 -10 0 -5 -4 -10 -9
-10 -5 0 -12 -46 -16 -101 -4 -56 -11 -96 -15 -89 -13 20 -68 3 -72 -23 -2
-12 -7 39 -12 113 -4 74 -12 137 -17 138 -18 7 3 22 29 21 15 0 21 -3 15 -6z
m-533 -22 c0 -11 -4 -23 -10 -26 -5 -3 -10 1 -10 9 0 12 -10 16 -35 16 l-35 0
0 -48 c0 -48 0 -49 30 -44 18 3 30 0 30 -7 0 -6 -14 -11 -31 -11 -28 0 -31 -3
-25 -22 3 -13 6 -46 6 -75 0 -44 3 -53 22 -59 13 -4 24 -2 26 5 6 19 22 12 22
-10 0 -20 -4 -21 -47 -14 -27 4 -49 8 -50 9 -1 1 1 66 4 143 7 155 4 149 71
152 25 1 32 -3 32 -18z m729 5 c9 -11 6 -12 -14 -8 -14 2 -22 8 -19 13 8 13
20 11 33 -5z m-609 -6 c0 -5 -11 -10 -25 -10 -14 0 -25 5 -25 10 0 6 11 10 25
10 14 0 25 -4 25 -10z m-333 -22 c-3 -8 -6 -5 -6 6 -1 11 2 17 5 13 3 -3 4
-12 1 -19z m660 7 c3 -9 2 -19 -2 -23 -4 -4 -10 -1 -12 6 -9 23 -31 12 -37
-19 -3 -17 -6 -74 -6 -125 0 -77 3 -94 15 -94 8 0 15 -4 15 -10 0 -5 -16 -10
-35 -10 -19 0 -35 5 -35 10 0 6 7 10 16 10 15 0 16 9 11 68 -4 37 -7 93 -7
125 0 50 -2 57 -19 57 -11 0 -22 -8 -25 -17 -4 -14 -4 -14 -3 2 2 19 12 23
105 33 7 1 15 -5 19 -13z m110 -7 c-3 -8 -6 -5 -6 6 -1 11 2 17 5 13 3 -3 4
-12 1 -19z m213 -2 c0 -2 -7 -6 -15 -10 -8 -3 -15 -1 -15 4 0 6 7 10 15 10 8
0 15 -2 15 -4z m-807 -20 c3 -8 -2 -16 -14 -19 -14 -4 -19 0 -19 14 0 22 25
26 33 5z m134 -8 c-3 -8 -6 -5 -6 6 -1 11 2 17 5 13 3 -3 4 -12 1 -19z m-299
-63 c-2 -36 -8 -60 -15 -63 -14 -4 -18 52 -7 107 11 51 25 21 22 -44z m770 0
c-4 -79 -28 -89 -28 -12 0 63 8 93 22 79 5 -5 8 -35 6 -67z m-696 -37 c-4 -92
-7 -106 -17 -96 -8 8 6 188 15 188 3 0 4 -42 2 -92z m235 50 c-3 -7 -5 -2 -5
12 0 14 2 19 5 13 2 -7 2 -19 0 -25z m578 -101 c6 -15 15 -18 36 -13 33 6 36
0 14 -31 -9 -13 -22 -20 -30 -17 -19 8 -45 96 -44 148 2 38 2 37 9 -14 4 -30
11 -63 15 -73z m-524 -68 c8 -5 11 -9 7 -9 -3 0 -13 -3 -22 -6 -13 -5 -16 1
-16 29 0 35 -12 47 -50 47 -22 0 -36 -46 -19 -66 9 -11 7 -14 -15 -14 -25 0
-36 15 -16 22 5 2 16 32 25 68 8 36 13 50 11 33 -2 -30 0 -33 27 -33 28 0 29
1 23 43 -3 23 3 10 13 -32 10 -40 25 -77 32 -82z m-56 21 c-3 -5 -10 -10 -16
-10 -5 0 -9 5 -9 10 0 6 7 10 16 10 8 0 12 -4 9 -10z m-256 -27 c2 -2 -5 -3
-17 -3 -14 0 -22 6 -22 16 0 14 3 15 18 3 9 -7 19 -15 21 -16z m770 0 c2 -2
-5 -3 -17 -3 -14 0 -22 6 -22 16 0 14 3 15 18 3 9 -7 19 -15 21 -16z m-99 -3
c-19 -13 -30 -13 -30 0 0 6 10 10 23 10 18 0 19 -2 7 -10z"/>
<path d="M2779 1673 c-5 -16 -12 -34 -14 -40 -2 -7 2 -13 10 -13 12 0 15 -17
15 -84 0 -46 3 -98 6 -116 6 -30 5 -31 -13 -22 -14 8 -25 35 -40 104 -13 57
-18 97 -12 103 5 5 9 24 9 43 l0 34 -42 -7 c-57 -9 -65 -18 -51 -56 10 -25 8
-48 -8 -122 -11 -51 -24 -93 -30 -95 -5 -2 -9 -18 -9 -37 0 -28 4 -33 31 -39
52 -10 59 -8 60 22 1 21 3 22 6 6 3 -17 14 -22 53 -27 56 -7 120 1 120 15 0 5
7 5 18 -1 13 -7 23 -4 40 11 18 17 22 18 22 6 0 -12 18 -19 66 -27 37 -7 67
-11 69 -9 1 2 5 22 8 45 5 40 4 41 -27 46 -17 2 -34 -1 -38 -7 -4 -6 -8 15 -8
47 0 54 1 57 25 57 23 0 25 4 25 40 0 29 4 40 15 40 11 0 15 12 15 48 l0 47
-67 -5 -68 -5 -9 -122 c-7 -105 -11 -123 -26 -123 -9 0 -27 11 -40 24 l-23 25
37 34 c42 40 46 71 15 111 -18 22 -105 76 -124 76 -3 0 -10 -12 -16 -27z m88
-36 c47 -32 57 -60 32 -91 -11 -15 -30 -31 -42 -38 -14 -7 -11 0 11 19 17 17
32 38 32 46 0 8 -15 28 -32 43 l-33 27 -3 -78 c-3 -78 -3 -78 36 -124 24 -28
47 -45 57 -43 10 2 14 -1 10 -7 -12 -21 -33 -10 -69 36 l-36 46 0 -49 c0 -28
5 -55 12 -62 9 -9 6 -12 -15 -12 -15 0 -27 5 -27 10 0 6 5 10 11 10 9 0 10 34
5 128 -4 70 -10 138 -13 151 -5 21 -3 23 13 17 10 -4 33 -17 51 -29z m213 4
c0 -11 -4 -23 -10 -26 -5 -3 -10 1 -10 9 0 12 -10 16 -35 16 l-35 0 0 -48 c0
-48 0 -49 30 -44 18 3 30 0 30 -7 0 -6 -14 -11 -31 -11 -30 0 -31 -2 -25 -31
3 -17 6 -51 6 -75 0 -35 4 -44 22 -50 13 -4 24 -2 26 5 6 19 22 12 22 -10 0
-20 -4 -21 -47 -14 -27 4 -49 8 -50 9 -1 1 1 66 4 143 7 155 4 149 71 152 25
1 32 -3 32 -18z m-360 -1 c0 -5 -11 -10 -25 -10 -14 0 -25 5 -25 10 0 6 11 10
25 10 14 0 25 -4 25 -10z m323 -44 c3 -8 -2 -16 -14 -19 -14 -4 -19 0 -19 14
0 22 25 26 33 5z m-173 -21 c0 -8 -4 -17 -10 -20 -6 -4 -10 5 -10 20 0 15 4
24 10 20 6 -3 10 -12 10 -20z m-120 -196 c10 -18 4 -29 -16 -29 -10 0 -12 9
-7 31 6 34 -6 49 -43 49 -26 0 -41 -44 -23 -66 9 -11 7 -14 -15 -14 -25 0 -36
14 -17 22 5 2 16 32 24 68 9 36 14 50 12 33 -4 -31 -3 -33 26 -33 27 0 30 3
26 23 -3 12 -8 40 -11 62 -3 22 4 2 15 -45 11 -47 24 -92 29 -101z m-50 11 c0
-5 -4 -10 -10 -10 -5 0 -10 5 -10 10 0 6 5 10 10 10 6 0 10 -4 10 -10z m171
-7 c13 -16 12 -17 -3 -4 -17 13 -22 21 -14 21 2 0 10 -8 17 -17z"/>
<path d="M4215 1691 c-4 -7 -49 -11 -116 -11 -86 0 -109 -3 -109 -14 0 -16
-21 -26 -56 -26 -18 0 -24 5 -24 23 0 21 -3 22 -67 17 l-68 -5 -5 -49 -5 -49
-17 36 c-18 37 -69 77 -100 77 -9 0 -21 -13 -27 -30 -8 -24 -7 -30 5 -30 22 0
21 -225 -2 -234 -12 -5 -14 -14 -9 -38 4 -18 9 -35 11 -37 10 -11 89 37 110
68 l24 36 0 -42 0 -41 66 -11 c37 -7 67 -11 69 -9 1 2 5 22 9 44 6 41 5 42
-27 47 -18 2 -35 0 -39 -7 -4 -6 -8 15 -8 47 0 56 0 57 29 57 28 0 29 1 24 40
-4 26 -2 40 5 40 21 0 39 -54 62 -180 12 -69 25 -128 29 -132 4 -5 24 69 46
162 21 94 42 170 47 170 5 0 5 -60 2 -134 l-7 -133 68 -12 c48 -9 70 -9 75 -1
3 5 33 14 65 18 52 6 60 10 65 32 6 25 7 25 14 3 4 -12 16 -25 27 -28 60 -19
93 48 88 179 -2 47 -1 86 4 86 4 0 7 -49 7 -110 0 -67 -4 -110 -10 -110 -5 0
-10 -19 -10 -41 l0 -42 38 7 c20 3 43 6 50 6 14 0 16 46 2 55 -5 3 -10 25 -10
48 0 37 4 45 35 65 l35 22 0 -89 0 -89 66 -12 c41 -7 88 -8 123 -3 31 4 61 7
68 6 7 0 29 14 50 32 37 33 38 34 18 49 -11 8 -27 16 -35 16 -8 0 -24 12 -36
27 l-21 26 34 30 c62 54 40 117 -57 167 -34 17 -47 20 -64 11 -12 -6 -46 -12
-76 -13 -52 -3 -55 -5 -60 -32 -5 -27 -6 -28 -19 -12 -13 16 -102 66 -116 66
-3 0 -12 -14 -19 -32 -13 -31 -14 -31 -25 -10 -12 22 -45 29 -68 14 -24 -15
-43 -82 -43 -151 0 -66 -1 -69 -26 -74 -26 -5 -26 -4 -20 41 3 24 6 64 6 88 0
31 4 44 14 44 13 0 26 20 26 41 0 19 -104 46 -115 30z m63 -27 c24 -7 30 -24
8 -24 -11 0 -16 -23 -21 -97 -3 -54 -9 -110 -11 -125 -5 -23 -2 -28 15 -28 11
0 24 8 30 17 5 10 13 14 17 10 16 -16 -13 -42 -50 -45 -20 -2 -36 0 -36 4 0 5
7 64 16 133 12 90 13 126 5 129 -12 4 -15 32 -3 32 4 0 17 -3 30 -6z m274 -27
c24 -18 44 -43 46 -56 4 -25 -29 -67 -60 -77 -15 -4 -18 -16 -18 -74 0 -45 4
-70 13 -73 6 -3 -4 -6 -23 -6 -32 0 -33 1 -17 14 17 12 18 24 12 127 -3 62 -8
128 -11 146 -6 40 4 40 58 -1z m322 -26 c25 -28 15 -62 -29 -92 -19 -13 -35
-29 -35 -34 0 -18 85 -96 95 -88 5 5 3 0 -4 -9 -12 -16 -17 -13 -55 34 l-41
52 -3 -48 c-2 -26 2 -54 9 -62 9 -11 7 -14 -15 -14 -14 0 -26 5 -26 10 0 6 5
10 10 10 15 0 13 267 -2 272 -6 2 -8 10 -4 16 9 14 71 -15 100 -47z m-984 24
c0 -14 -4 -25 -10 -25 -5 0 -10 7 -10 15 0 10 -11 15 -35 15 l-35 0 0 -50 0
-49 30 6 c19 3 30 1 30 -6 0 -6 -11 -11 -25 -11 -24 0 -25 -2 -25 -74 0 -68 2
-75 22 -82 13 -4 24 -2 26 5 6 19 22 12 22 -10 0 -20 -4 -21 -42 -15 -22 4
-44 8 -47 10 -3 2 -5 67 -3 144 3 154 1 148 70 151 28 1 32 -2 32 -24z m170
20 c0 -3 -5 -13 -10 -23 -6 -9 -19 -53 -29 -97 -22 -92 -26 -74 -7 33 7 40 9
72 4 72 -5 0 -6 5 -3 10 6 10 45 14 45 5z m140 -20 c0 -14 -4 -25 -10 -25 -5
0 -10 7 -10 15 0 10 -11 15 -35 15 l-35 0 0 -50 0 -49 30 6 c19 3 30 1 30 -6
0 -6 -11 -11 -25 -11 -24 0 -25 -2 -25 -74 0 -68 2 -75 22 -82 13 -4 24 -2 26
5 6 19 22 12 22 -10 0 -20 -4 -21 -42 -15 -24 4 -46 10 -49 14 -3 4 -3 69 -1
144 4 150 2 144 70 147 28 1 32 -2 32 -24z m230 -11 c32 -63 13 -238 -27 -251
-21 -7 -46 59 -49 132 l-3 70 8 -60 c11 -77 19 -95 42 -95 33 0 49 98 29 172
-13 45 -25 54 -47 36 -15 -12 -15 -11 -4 10 15 29 31 24 51 -14z m310 17 c0
-11 -4 -23 -10 -26 -5 -3 -10 1 -10 9 0 12 -10 16 -35 16 l-35 0 0 -50 0 -49
30 6 c19 3 30 1 30 -6 0 -6 -14 -11 -31 -11 -28 0 -31 -3 -25 -22 3 -13 6 -46
6 -75 0 -44 3 -53 22 -59 13 -4 24 -2 26 5 6 19 22 12 22 -10 0 -20 -4 -21
-42 -15 -24 4 -46 10 -50 14 -4 4 -4 69 -1 144 6 149 4 144 71 147 25 1 32 -3
32 -18z m-1006 -56 c30 -63 13 -150 -39 -202 -36 -36 -55 -42 -55 -18 0 8 4
15 9 15 5 0 13 15 17 33 7 31 8 31 14 7 l6 -25 22 35 c42 67 41 119 -5 186
-20 31 -21 35 -5 21 11 -11 28 -34 36 -52z m232 -48 l2 -82 -13 62 c-7 34 -17
69 -23 76 -13 16 -6 27 17 27 13 0 16 -15 17 -83z m260 11 c-13 -135 -15 -141
-47 -134 -17 3 -29 1 -33 -7 -2 -7 -5 14 -5 46 -1 56 0 57 27 57 26 0 27 2 24
40 -3 32 -1 40 12 40 9 0 16 7 16 15 0 8 3 15 6 15 4 0 4 -33 0 -72z m-372 47
c3 -9 0 -15 -9 -15 -8 0 -15 7 -15 15 0 8 4 15 9 15 5 0 11 -7 15 -15z m310 0
c4 -10 -1 -15 -14 -15 -11 0 -20 7 -20 15 0 8 6 15 14 15 8 0 16 -7 20 -15z
m203 -7 c-3 -8 -6 -5 -6 6 -1 11 2 17 5 13 3 -3 4 -12 1 -19z m336 8 c3 -8 -2
-16 -14 -19 -14 -4 -19 0 -19 14 0 22 25 26 33 5z m-293 -65 c0 -39 -4 -72 -9
-75 -12 -8 -22 62 -14 107 9 61 23 42 23 -32z m354 43 c3 -9 6 -51 6 -94 l0
-78 -37 9 c-26 5 -40 4 -45 -4 -4 -7 -8 14 -8 46 0 54 1 57 25 57 23 0 25 4
25 40 0 41 21 57 34 24z m-1054 -81 c-7 -24 -8 -21 -9 22 0 38 2 45 9 28 5
-12 5 -34 0 -50z m267 -65 c-3 -8 -6 -5 -6 6 -1 11 2 17 5 13 3 -3 4 -12 1
-19z"/>
<path d="M4520 1576 c0 -36 3 -66 8 -66 4 0 18 7 30 16 27 19 29 65 5 86 -40
34 -43 32 -43 -36z m32 -18 c-9 -9 -12 -7 -12 12 0 19 3 21 12 12 9 -9 9 -15
0 -24z"/>
<path d="M4800 1575 c0 -73 11 -82 49 -41 30 32 22 70 -19 91 l-30 16 0 -66z
m43 -10 c-7 -21 -13 -19 -13 6 0 11 4 18 10 14 5 -3 7 -12 3 -20z"/>
<path d="M1285 1671 c-25 -5 -31 -12 -33 -39 -2 -17 1 -32 6 -32 10 0 -27
-192 -38 -200 -4 -3 -11 -19 -14 -36 -7 -31 -6 -31 36 -38 34 -6 45 -4 55 10
7 10 13 12 13 6 0 -7 16 -12 40 -12 39 0 40 1 40 34 0 19 -4 36 -9 38 -4 2
-18 45 -29 95 -16 69 -19 100 -12 119 23 60 13 70 -55 55z m35 -31 c0 -5 -12
-10 -26 -10 -14 0 -23 4 -19 10 3 6 15 10 26 10 10 0 19 -4 19 -10z m-13 -72
c-3 -8 -6 -5 -6 6 -1 11 2 17 5 13 3 -3 4 -12 1 -19z m10 -50 c-3 -7 -5 -2 -5
12 0 14 2 19 5 13 2 -7 2 -19 0 -25z m-40 -30 c-3 -7 -5 -2 -5 12 0 14 2 19 5
13 2 -7 2 -19 0 -25z m85 -115 c6 -7 8 -13 5 -13 -3 0 -13 -3 -22 -7 -14 -5
-16 -2 -11 15 11 33 -11 64 -42 60 -24 -3 -27 -7 -27 -41 0 -29 -4 -37 -17
-37 -19 0 -24 15 -9 25 6 3 13 27 17 53 4 26 10 39 12 30 2 -12 13 -18 32 -18
27 0 29 2 25 33 -2 17 2 5 11 -28 8 -32 20 -65 26 -72z m-52 17 c0 -5 -4 -10
-10 -10 -5 0 -10 5 -10 10 0 6 5 10 10 10 6 0 10 -4 10 -10z"/>
<path d="M3355 1650 c-27 -5 -71 -9 -97 -9 -43 -1 -48 -3 -48 -23 0 -30 15
-52 29 -44 8 5 11 -22 11 -92 0 -80 -3 -101 -15 -106 -8 -3 -15 -14 -15 -25 0
-20 25 -31 78 -31 27 0 32 4 32 24 0 14 -6 31 -13 38 -9 10 -11 38 -6 113 3
55 6 94 7 88 1 -7 13 -13 27 -13 22 0 25 -4 25 -37 0 -21 3 -62 6 -90 6 -44 4
-53 -8 -53 -12 0 -33 -48 -25 -57 1 -1 31 -5 66 -9 l64 -7 -6 39 c-4 21 -11
40 -17 42 -6 2 -10 41 -10 93 l0 89 31 0 c24 0 30 3 25 16 -3 9 -6 27 -6 40 0
22 -4 24 -42 23 -24 -1 -65 -5 -93 -9z m115 -30 c0 -11 -4 -20 -10 -20 -5 0
-10 5 -10 10 0 6 -7 10 -15 10 -11 0 -15 -11 -15 -42 0 -24 -3 -80 -7 -125 -5
-73 -4 -83 11 -83 9 0 16 -4 16 -10 0 -5 -17 -10 -37 -10 -34 1 -36 2 -20 14
14 11 17 29 17 97 0 46 -3 101 -6 122 -7 40 -26 48 -44 20 -10 -16 -10 -16 -8
2 3 15 13 21 48 26 78 10 80 10 80 -11z m-170 -10 c-11 -7 -16 -38 -21 -127
l-5 -118 -2 118 c-2 96 -5 117 -17 117 -8 0 -15 5 -15 10 0 6 17 10 38 10 27
0 33 -3 22 -10z m0 -260 c0 -12 -8 -12 -35 0 -18 8 -17 9 8 9 15 1 27 -3 27
-9z"/>
<path d="M1393 1533 c-7 -2 -13 -15 -13 -28 0 -21 5 -24 63 -27 34 -2 63 -3
64 -3 2 1 6 16 9 33 l7 32 -59 -1 c-33 0 -65 -3 -71 -6z m97 -23 c0 -5 -21 -9
-47 -9 l-48 2 40 7 c22 4 43 8 48 9 4 0 7 -3 7 -9z"/>
<path d="M3097 1533 c-13 -3 -16 -10 -11 -26 3 -12 7 -23 8 -23 0 -1 29 -4 63
-7 l61 -5 4 34 4 34 -56 -1 c-30 -1 -63 -3 -73 -6z m103 -23 c0 -5 -21 -9 -47
-9 l-48 2 40 7 c22 4 43 8 48 9 4 0 7 -3 7 -9z"/>
<path d="M3498 1533 c-11 -3 -18 -14 -18 -29 0 -22 4 -24 48 -24 26 0 57 -3
70 -6 20 -6 22 -3 22 30 l0 36 -52 -1 c-29 -1 -61 -3 -70 -6z m97 -23 c4 -6
-12 -9 -42 -9 -47 2 -47 2 -13 9 19 4 38 8 42 9 4 0 10 -3 13 -9z"/>
<path d="M4196 1025 c-19 -20 -20 -26 -3 -49 16 -22 65 -18 81 7 25 39 -43 76
-78 42z m50 -16 c10 -17 -13 -36 -27 -22 -12 12 -4 33 11 33 5 0 12 -5 16 -11z"/>
<path d="M4404 980 l6 -65 -17 35 c-22 42 -55 51 -86 22 -29 -27 -126 -31
-181 -8 -21 9 -45 16 -53 16 -17 0 -55 -19 -64 -32 -3 -4 -24 1 -47 12 -49 24
-80 25 -110 4 -21 -14 -22 -14 -22 8 0 23 -2 24 -67 20 -38 -2 -98 -12 -134
-22 -64 -17 -66 -17 -78 2 -19 31 -61 20 -86 -22 -16 -28 -20 -52 -20 -126 0
-89 0 -90 -23 -86 -12 2 -31 16 -42 29 l-19 25 34 33 c61 57 39 117 -58 167
-47 24 -63 19 -72 -22 -6 -28 -9 -30 -23 -17 -17 15 -96 57 -107 57 -6 0 -35
-63 -35 -75 0 -3 6 -5 14 -5 12 0 15 -22 18 -110 2 -83 0 -110 -9 -110 -8 0
-13 -15 -13 -41 0 -38 2 -41 23 -35 12 3 34 6 50 6 23 0 27 4 27 30 0 17 -4
30 -10 30 -5 0 -10 20 -10 45 0 25 4 45 9 45 5 0 25 15 44 33 l35 33 6 -36 c9
-55 7 -110 -4 -110 -5 0 -10 -18 -10 -40 l0 -41 38 6 c83 14 98 19 127 41 30
23 31 23 43 4 15 -24 54 -26 72 -4 8 8 19 36 26 62 l13 47 2 -40 c1 -22 1 -61
-1 -87 -1 -27 1 -48 4 -48 3 0 29 9 59 20 45 17 62 19 106 10 29 -5 57 -7 62
-4 5 2 19 0 31 -7 16 -9 23 -9 26 0 2 6 15 11 28 11 38 0 74 42 74 86 0 31 -8
44 -55 89 -30 29 -55 57 -55 62 0 5 6 18 14 28 13 18 15 17 30 -19 16 -38 22
-39 57 -9 15 12 17 10 23 -20 4 -21 23 -49 51 -77 25 -24 45 -50 45 -57 0 -18
-7 -16 -42 8 -16 12 -31 20 -32 18 -2 -2 -7 -27 -11 -55 -6 -47 -5 -51 19 -62
16 -7 26 -8 26 -2 0 6 12 10 26 10 39 0 61 16 73 53 16 46 2 78 -54 129 -31
28 -45 49 -43 62 4 27 38 35 38 9 0 -10 4 -25 10 -33 7 -12 12 -12 29 4 10 10
31 19 45 20 25 3 26 2 26 -59 0 -34 3 -77 6 -94 5 -24 3 -31 -9 -31 -12 0 -31
-49 -22 -58 2 -2 28 -6 59 -9 l56 -6 -7 34 c-3 19 -10 35 -15 37 -10 4 -11
202 0 202 4 0 7 -38 8 -83 0 -104 23 -152 70 -152 25 0 32 7 51 45 20 41 22
42 23 18 0 -16 -5 -28 -11 -28 -12 0 -4 -49 11 -64 4 -4 24 -2 44 5 33 12 36
16 36 52 0 23 -4 36 -10 32 -6 -3 -10 5 -10 19 0 13 -3 33 -6 43 -3 10 18 -23
47 -74 30 -51 56 -87 60 -81 4 6 22 8 48 3 40 -7 41 -6 42 22 2 25 2 26 6 4 5
-26 -8 -26 153 -2 47 6 57 20 59 83 1 25 -1 27 -29 22 -29 -6 -30 -6 -30 33 0
73 12 133 26 133 9 0 14 11 14 29 0 26 -5 30 -44 40 -25 6 -50 11 -55 11 -14
0 -14 -77 -1 -82 11 -3 -9 -208 -20 -208 -11 0 -48 184 -38 194 4 6 8 25 8 44
l0 34 -42 -7 c-56 -9 -63 -17 -49 -55 8 -25 7 -50 -9 -121 -11 -49 -20 -91
-20 -94 0 -3 -4 -5 -10 -5 -15 0 -13 226 2 267 15 42 3 53 -59 53 -42 0 -43 0
-43 -35 0 -23 5 -35 14 -35 10 0 15 -17 18 -57 2 -32 3 -59 3 -60 -1 -2 -22
34 -48 80 -25 45 -53 91 -62 102 -15 19 -16 16 -11 -45z m146 22 c13 -6 14
-29 10 -151 l-5 -143 -54 96 c-30 52 -57 94 -59 91 -8 -8 20 -205 29 -199 5 3
9 -2 9 -10 0 -9 -4 -16 -9 -16 -5 0 -15 -2 -23 -5 -10 -4 -13 23 -15 137 -1
96 2 138 9 128 5 -8 32 -53 59 -100 l50 -85 -5 120 c-3 72 -9 121 -15 123 -12
4 -15 22 -3 21 4 0 14 -3 22 -7z m-1343 -55 c50 -34 57 -60 27 -96 -14 -17
-34 -33 -44 -36 -17 -5 -20 -16 -20 -69 0 -35 5 -67 12 -74 9 -9 6 -12 -15
-12 -15 0 -27 5 -27 10 0 6 5 10 11 10 12 0 6 207 -8 274 -4 25 -3 28 13 22
11 -4 33 -17 51 -29z m139 8 c76 -45 78 -78 9 -131 l-35 -27 42 -46 c24 -25
49 -44 57 -43 13 3 13 1 1 -13 -12 -15 -15 -14 -36 12 -12 15 -31 39 -42 53
l-21 25 -1 -50 c0 -28 5 -56 12 -63 9 -9 6 -12 -15 -12 -15 0 -27 5 -27 10 0
6 5 10 11 10 12 0 7 238 -6 278 -9 28 -2 28 51 -3z m1481 19 c13 -4 20 -10 17
-15 -3 -5 -9 -7 -14 -4 -9 5 -16 -41 -26 -167 -7 -94 -1 -105 36 -66 l20 22 0
-26 c0 -28 -16 -38 -59 -38 l-27 0 17 133 c14 112 15 134 3 143 -28 22 -12 30
33 18z m-1278 -58 c0 -6 -5 -1 -11 12 -13 26 -33 29 -47 5 -6 -10 -11 -14 -11
-9 0 5 8 18 17 29 17 18 18 18 35 -3 10 -12 18 -27 17 -34z m261 27 c-1 -25
-2 -26 -14 -10 -7 9 -25 17 -40 17 -25 0 -26 -3 -26 -50 0 -49 0 -49 25 -40
20 7 25 6 25 -5 0 -9 -10 -15 -25 -15 -24 0 -25 -2 -25 -74 0 -68 2 -74 23
-80 12 -3 24 -1 25 4 7 18 22 10 22 -11 0 -19 -4 -21 -31 -15 -17 3 -38 6 -45
6 -11 0 -14 26 -14 124 0 158 6 176 60 176 37 0 40 -2 40 -27z m556 2 c9 -14
14 -28 11 -31 -3 -3 -8 4 -12 15 -8 26 -30 27 -44 4 -14 -24 -14 -7 -1 18 14
26 26 24 46 -6z m-686 -9 c0 -14 -4 -28 -10 -31 -5 -3 -10 3 -10 14 0 17 -5
20 -32 16 l-33 -5 35 14 c48 20 50 19 50 -8z m274 -7 c27 -16 27 -18 8 -28
-16 -9 -21 -7 -25 9 -7 28 -56 38 -74 15 -25 -36 -15 -66 42 -126 30 -32 55
-64 55 -72 0 -41 -68 -85 -86 -56 -4 8 -9 7 -15 -2 -6 -10 -9 -8 -9 8 0 27 16
39 24 18 7 -18 37 -20 54 -3 25 25 13 58 -38 107 -59 57 -66 96 -26 136 26 26
37 25 90 -6z m173 0 c19 -14 21 -19 9 -28 -11 -10 -16 -8 -21 8 -8 26 -50 38
-70 21 -8 -7 -15 -28 -15 -47 0 -29 9 -43 50 -83 39 -37 50 -55 50 -79 0 -37
-32 -62 -76 -58 -25 2 -30 6 -26 24 4 20 6 20 19 8 32 -33 80 -6 69 38 -3 13
-24 40 -46 61 -51 47 -63 75 -48 116 17 50 56 57 105 19z m573 21 c0 -5 -11
-10 -25 -10 -14 0 -25 5 -25 10 0 6 11 10 25 10 14 0 25 -4 25 -10z m-927 -40
c3 -13 0 -20 -9 -20 -8 0 -14 9 -14 20 0 11 4 20 9 20 5 0 11 -9 14 -20z m480
13 c-10 -3 -13 -39 -13 -128 0 -89 3 -125 13 -128 6 -3 -4 -5 -23 -5 -19 0
-27 2 -17 5 14 4 17 16 17 62 0 102 -12 181 -26 181 -8 0 -14 5 -14 10 0 6 17
10 38 9 20 0 31 -3 25 -6z m-724 -83 c1 -50 -9 -85 -20 -68 -11 16 -12 109 -2
135 6 16 8 15 14 -7 4 -14 7 -41 8 -60z m826 -37 c-5 -33 -9 -42 -16 -32 -10
17 -12 110 -2 136 12 30 26 -51 18 -104z m322 95 c-3 -8 -6 -5 -6 6 -1 11 2
17 5 13 3 -3 4 -12 1 -19z m-1184 -155 c5 -7 14 -13 22 -13 22 0 29 20 36 100
l6 75 1 -73 c2 -71 -14 -132 -37 -146 -30 -19 -65 102 -53 184 6 41 7 39 12
-35 3 -44 9 -86 13 -92z m154 50 c28 5 31 -9 3 -18 -17 -5 -19 -12 -14 -48 4
-23 11 -47 15 -53 11 -13 1 -24 -20 -24 -12 0 -16 11 -16 48 0 26 -3 85 -7
132 -6 83 -6 84 4 22 10 -59 13 -63 35 -59z m19 87 c20 0 24 -5 24 -27 0 -23
-5 -28 -25 -29 -19 -2 -25 3 -25 20 0 11 -2 30 -4 41 -2 11 -1 14 1 8 3 -7 15
-13 29 -13z m641 -7 c-3 -10 -5 -4 -5 12 0 17 2 24 5 18 2 -7 2 -21 0 -30z
m-487 -9 c0 -30 8 -44 50 -84 67 -65 69 -90 4 -49 -29 17 -34 18 -34 5 0 -18
-26 -21 -64 -6 -22 8 -26 16 -26 50 0 38 1 40 31 40 31 0 31 0 25 40 -4 25 -2
40 4 40 5 0 10 -16 10 -36z m568 -64 c-2 -42 -10 -77 -22 -94 -18 -28 -18 -28
-37 -10 -19 19 -44 124 -36 147 2 7 8 -6 11 -28 10 -58 23 -85 41 -85 22 0 35
41 36 113 1 34 4 53 6 43 3 -11 3 -49 1 -86z m299 48 c-3 -8 -6 -5 -6 6 -1 11
2 17 5 13 3 -3 4 -12 1 -19z m54 -169 c14 -9 11 -9 -28 -9 -4 0 -7 15 -7 33
-1 28 -4 32 -32 35 -27 3 -33 -1 -38 -23 -4 -16 -2 -33 5 -41 9 -11 7 -14 -9
-14 -12 0 -24 5 -27 10 -3 6 -2 10 4 10 5 0 12 17 16 38 6 37 7 38 42 34 l35
-4 -6 43 c-3 26 2 14 13 -30 10 -40 25 -77 32 -82z m-94 99 c-3 -7 -5 -2 -5
12 0 14 2 19 5 13 2 -7 2 -19 0 -25z m-957 -53 c0 -26 -3 -33 -15 -29 -15 6
-21 45 -8 57 15 15 23 5 23 -28z m1000 -19 c0 -11 -19 -15 -25 -6 -3 5 1 10 9
10 9 0 16 -2 16 -4z"/>
<path d="M3170 885 c0 -36 3 -65 6 -65 14 0 45 23 54 41 13 23 -6 61 -40 79
-19 10 -20 8 -20 -55z m40 0 c0 -8 -4 -17 -10 -20 -6 -4 -10 5 -10 20 0 15 4
24 10 20 6 -3 10 -12 10 -20z"/>
<path d="M3320 880 l0 -70 25 16 c54 35 56 83 4 109 l-29 16 0 -71z m36 -6
c-4 -9 -9 -15 -11 -12 -3 3 -3 13 1 22 4 9 9 15 11 12 3 -3 3 -13 -1 -22z"/>
<path d="M5016 1008 c-14 -45 -13 -58 5 -63 17 -6 19 -17 19 -120 0 -93 -3
-116 -16 -123 -18 -10 -10 -62 10 -62 6 0 35 15 64 34 l52 35 0 -31 c0 -29 2
-30 31 -24 17 3 45 6 61 6 21 0 31 6 35 20 3 11 8 20 12 20 3 0 12 -9 19 -20
20 -33 59 -26 83 15 l21 36 17 -33 c20 -41 63 -50 83 -19 7 12 18 21 24 21 11
0 34 42 34 61 0 5 -20 19 -46 31 -39 19 -46 20 -54 8 -7 -10 -10 4 -10 45 1
46 3 56 11 43 9 -17 12 -17 50 3 34 17 40 24 35 42 -3 12 -6 25 -6 30 0 4 -9
7 -19 7 -11 0 -23 5 -26 10 -14 22 -56 10 -73 -20 -18 -32 -32 -39 -32 -17 0
22 -37 49 -62 45 -35 -5 -61 -67 -63 -152 -2 -64 -5 -71 -24 -74 -18 -3 -21 2
-21 30 0 69 13 138 25 138 7 0 15 12 18 26 5 28 -9 37 -77 49 l-36 7 0 -38
c-1 -32 -3 -36 -11 -21 -10 17 -64 48 -107 61 -14 5 -23 3 -26 -6z m117 -79
c14 -23 2 -60 -33 -104 -23 -29 -30 -48 -30 -82 0 -41 1 -43 21 -33 29 16 34
38 13 62 -19 21 -19 21 3 9 12 -6 25 -16 28 -22 9 -13 -23 -48 -67 -73 -18
-10 -27 -13 -20 -5 8 9 12 53 12 145 0 110 -3 133 -16 138 -8 3 -12 11 -9 16
8 13 83 -27 98 -51z m94 45 c13 -4 20 -10 17 -15 -3 -5 -9 -7 -14 -4 -9 5 -15
-39 -26 -172 -7 -89 0 -100 36 -61 l20 22 0 -26 c0 -28 -16 -38 -59 -38 l-27
0 12 103 c7 56 16 119 19 140 4 29 2 37 -10 37 -8 0 -15 5 -15 10 0 11 15 12
47 4z m147 -36 c34 -81 26 -206 -14 -243 -17 -16 -19 -15 -37 11 -13 21 -18
49 -19 114 l-2 85 7 -75 c6 -80 14 -100 36 -100 23 0 35 35 35 104 0 84 -13
120 -41 113 -16 -4 -18 -3 -8 9 18 22 29 17 43 -18z m121 22 c3 -5 -3 -10 -15
-10 -12 0 -18 5 -15 10 3 6 10 10 15 10 5 0 12 -4 15 -10z m35 -35 c0 -2 -6
-5 -13 -8 -8 -3 -14 1 -14 8 0 7 6 11 14 8 7 -3 13 -6 13 -8z m-355 -52 c-10
-88 -13 -95 -35 -83 -19 10 -19 11 0 43 11 17 20 47 20 65 0 17 5 32 11 32 7
0 8 -19 4 -57z m184 -38 c1 -58 -13 -90 -22 -53 -9 30 -8 87 0 117 6 23 7 23
14 5 4 -10 8 -41 8 -69z m99 -97 c16 -16 45 -1 39 21 -4 17 -2 18 19 9 27 -13
32 -28 9 -28 -8 0 -15 -6 -15 -13 0 -8 -9 -22 -19 -31 -19 -17 -20 -17 -36 8
-10 15 -19 48 -21 74 -3 45 -3 46 5 9 4 -21 13 -43 19 -49z"/>
<path d="M5070 878 l1 -73 24 28 c36 40 29 117 -10 117 -12 0 -15 -15 -15 -72z
m27 10 c-3 -8 -6 -5 -6 6 -1 11 2 17 5 13 3 -3 4 -12 1 -19z"/>
<path d="M4880 820 l0 -30 65 0 c49 0 65 3 65 14 0 8 3 21 6 30 5 14 -4 16
-65 16 l-71 0 0 -30z m110 0 c0 -5 -21 -9 -47 -9 -43 1 -45 2 -18 9 44 11 65
11 65 0z"/>
</g>
</svg>
